<svg width="347" height="386" viewBox="0 0 347 386" fill="none" xmlns="http://www.w3.org/2000/svg">
<g clip-path="url(#clip0_0_10244)">
<g opacity="0.2">
<path d="M137.345 386C202.183 386 254.744 378.25 254.744 368.689C254.744 359.129 202.183 351.379 137.345 351.379C72.5074 351.379 19.946 359.129 19.946 368.689C19.946 378.25 72.5074 386 137.345 386Z" fill="#000072"/>
</g>
<path d="M221.464 158.397C218.922 157.834 215.921 151.566 214.599 148.283C216.568 148.329 218.482 148.356 220.316 148.356C223.281 148.356 226.056 148.292 228.683 148.188C226.76 153 223.493 158.861 221.464 158.397Z" fill="white"/>
<path d="M193.523 157.83C193.514 157.83 193.506 157.83 193.496 157.829C192.535 157.648 190.304 152.578 188.491 146.531C189.066 146.594 189.638 146.662 190.222 146.719C194.689 147.167 198.907 147.509 202.897 147.764C198.752 153.345 194.595 157.829 193.522 157.829L193.523 157.83Z" fill="white"/>
<path d="M227.077 71.7786C228.395 71.7786 229.868 74.9959 229.868 79.3027C229.868 83.6095 228.395 86.8269 227.077 86.8269C225.759 86.8269 224.286 83.6095 224.286 79.3027C224.286 74.9973 225.759 71.7786 227.077 71.7786Z" fill="#000072"/>
<path d="M261.639 142.423C260.603 146.835 258.239 155.156 255.889 156.679C255.528 156.914 255.308 156.866 255.236 156.851C253.957 156.577 252.461 154.943 251.072 152.944C251.07 152.94 251.066 152.938 251.063 152.934C249.535 150.732 248.138 148.092 247.297 146.33C253.879 145.182 258.495 143.722 261.639 142.423Z" fill="white"/>
<path d="M259.971 69.6654C261.289 69.6654 262.761 72.8827 262.761 77.1896C262.761 81.4964 261.289 84.7137 259.971 84.7137C258.653 84.7137 257.18 81.4964 257.18 77.1896C257.18 72.8841 258.653 69.6654 259.971 69.6654Z" fill="#000072"/>
<path d="M70.3807 63.6499C55.511 93.7801 51.3079 124.047 59.1379 144.613C63.9589 157.277 73.2026 166.463 86.6426 171.93C94.8845 175.768 102.412 176.914 102.486 176.926C102.569 176.938 102.645 176.972 102.716 177.009L102.793 179.073L122.572 179.284C122.714 179.212 123.096 176.898 123.264 176.934C179.007 188.521 238.394 166.667 240.895 165.729C245.923 163.847 249.027 155.221 249.627 153.415C247.828 150.772 246.382 147.814 245.806 146.577C241.462 147.271 236.326 147.826 230.271 148.122C229.201 150.913 225.466 159.872 221.666 159.872C221.494 159.872 221.321 159.853 221.149 159.816C217.362 158.976 213.826 150.344 213.02 148.244C210.35 148.166 207.55 148.04 204.63 147.869C201.921 151.586 196.006 159.277 193.446 159.277C193.376 159.277 193.309 159.272 193.244 159.26C190.837 158.823 188.112 150.435 186.924 146.355C181.697 145.728 176.849 144.892 172.347 143.9C170.042 146.803 163.889 154.127 160.478 154.127C160.167 154.127 159.879 154.066 159.619 153.936C156.617 152.43 155.552 141.913 155.305 138.874C151.987 137.614 148.947 136.275 146.167 134.892C144.397 136.765 137.594 143.678 133.635 143.678C133.6 143.678 133.563 143.678 133.528 143.677C132.699 143.65 132.003 143.317 131.513 142.712C128.637 139.159 130.727 128.099 131.275 125.47C130.662 124.978 130.074 124.491 129.516 124.011C118.637 114.657 115.436 106.163 115.304 105.806C115.166 105.43 115.36 105.013 115.737 104.875C116.114 104.739 116.532 104.931 116.67 105.307C116.794 105.646 129.787 139.217 190.37 145.279C206.511 146.895 219.404 147.18 229.656 146.719C229.701 146.713 229.744 146.711 229.789 146.713C236.258 146.417 241.672 145.823 246.176 145.079C246.198 145.076 246.22 145.068 246.241 145.068C260.871 142.638 265.91 138.612 266.536 138.048C266.555 137.918 266.585 137.713 266.633 137.383C268.688 123.366 274.525 75.955 263.4 54.3968C251.085 30.5333 197.919 28.8219 180.448 28.259L178.639 28.1999C178.237 28.1865 177.922 27.8506 177.937 27.4503C177.949 27.05 178.272 26.7209 178.688 26.7504L180.495 26.8095C185.404 26.9681 192.353 27.1924 200.211 27.8278C200.244 26.1634 199.915 21.7706 196.023 17.6196C191.166 12.4383 179.773 6.69405 153.103 8.72521C100.539 12.7392 88.0966 27.7566 70.3821 63.6525L70.3807 63.6499ZM255.724 77.1896C255.724 72.0727 257.55 68.2146 259.971 68.2146C262.391 68.2146 264.217 72.0727 264.217 77.1896C264.217 82.3065 262.391 86.1646 259.971 86.1646C257.55 86.1646 255.724 82.3051 255.724 77.1896ZM222.83 79.3027C222.83 74.1859 224.656 70.3277 227.077 70.3277C229.497 70.3277 231.323 74.1859 231.323 79.3027C231.323 84.4196 229.497 88.2777 227.077 88.2777C224.656 88.2777 222.83 84.4182 222.83 79.3027ZM106.321 114.589C106.667 112.367 107.344 110.173 108.444 108.153C108.972 107.129 109.655 106.186 110.399 105.287C111.181 104.418 112.065 103.628 113.049 102.967C114.048 102.331 115.139 101.835 116.278 101.515C117.42 101.212 118.597 101.05 119.763 101.084C122.089 101.131 124.371 101.768 126.306 102.932C124.143 102.325 121.936 102.053 119.794 102.212C117.657 102.383 115.596 103.021 113.843 104.182C112.075 105.325 110.627 106.937 109.418 108.736C108.199 110.537 107.248 112.539 106.321 114.589Z" fill="#5FE03F"/>
<path d="M133.573 142.223C133.162 142.211 132.867 142.074 132.643 141.797C130.602 139.277 131.731 130.736 132.554 126.475C135.866 129.015 139.917 131.668 144.81 134.202C142.139 136.971 136.369 142.306 133.573 142.223Z" fill="white"/>
<path d="M160.27 152.638C158.602 151.801 157.3 144.755 156.81 139.429C161.021 140.958 165.659 142.355 170.765 143.545C166.659 148.612 161.689 153.358 160.27 152.638Z" fill="white"/>
<g opacity="0.25">
<path d="M119.794 102.211C121.936 102.053 124.143 102.324 126.306 102.931C126.292 102.923 126.279 102.916 126.265 102.91C128.979 103.875 130.423 105.246 130.423 105.246C125.145 104.895 122.753 106.088 122.753 106.088C143.02 128.487 177.852 139.09 219.652 137.826C261.443 136.562 267.718 129.182 267.721 129.179C267.32 132.511 266.935 135.31 266.631 137.379C266.582 137.709 266.553 137.914 266.534 138.044C265.908 138.608 260.869 142.634 246.238 145.064C246.217 145.064 246.195 145.074 246.174 145.075C241.669 145.821 236.256 146.413 229.787 146.709C229.741 146.706 229.698 146.709 229.653 146.715C219.401 147.176 206.508 146.891 190.367 145.275C129.784 139.213 116.791 105.642 116.668 105.303C116.54 104.956 116.172 104.778 115.819 104.859C115.554 104.226 115.37 103.728 115.255 103.388C116.663 102.723 118.206 102.337 119.792 102.211H119.794Z" fill="#000072"/>
</g>
<g opacity="0.25">
<path d="M62.023 101.981C67.7568 69.9248 79.4897 72.8694 80.0902 76.1284C80.7175 79.5392 79.5665 84.5701 79.0104 91.2211C75.9059 128.384 95.2642 163.124 128.277 169.504C172.293 178.009 229.298 169.504 229.298 169.504C208.927 175.502 165.071 185.623 123.264 176.933C123.096 176.897 122.714 179.211 122.572 179.282L102.793 179.072L102.716 177.008C102.645 176.97 102.57 176.938 102.486 176.925C102.412 176.914 94.8845 175.767 86.6425 171.929C76.6612 167.868 68.9994 161.753 63.7408 153.689C58.9965 144.132 57.0013 130.06 62.023 101.98V101.981Z" fill="#000072"/>
</g>
<g opacity="0.4">
<path d="M247.237 47.1534C228.379 36.2937 197.228 31.7988 177.899 29.3646L180.276 28.251L180.447 28.2563C197.917 28.8192 251.084 30.5307 263.398 54.3941C267.261 61.8793 269.078 72.4811 269.719 83.7197V83.7251C269.719 83.7251 266.097 58.0131 247.237 47.1534Z" fill="white"/>
</g>
<g opacity="0.4">
<path d="M180.433 15.2271C168.049 10.9203 134.875 12.6976 115.985 19.0651C101.126 24.0745 87.2888 37.1293 82.0598 42.4745C95.73 21.553 112.369 11.8311 153.102 8.72123C179.771 6.68873 191.163 12.4343 196.022 17.6156C199.914 21.7666 200.242 26.1594 200.21 27.8238C197.553 27.6089 195.003 27.441 192.597 27.308C192.232 24.8456 190.163 18.6111 180.433 15.2285V15.2271Z" fill="white"/>
</g>
<path d="M220.632 149.781C256.551 149.781 267.057 141.437 268.347 140.272C268.635 140.013 269.287 139.425 269.361 138.497C269.376 138.385 269.411 138.146 269.463 137.791C272.136 119.554 277.142 74.7903 265.941 53.0857C252.857 27.7311 200.316 26.0398 180.538 25.403L178.734 25.3439C177.529 25.2915 176.569 26.2238 176.529 27.3992C176.488 28.5747 177.411 29.5594 178.589 29.5997L180.401 29.6588C197.667 30.2149 250.211 31.9062 262.147 55.0349C273.082 76.2224 267.28 123.263 265.241 137.176C265.234 137.223 265.228 137.267 265.221 137.31C262.779 139.072 245.693 149.403 190.509 143.881C159.358 140.763 141.291 130.289 131.621 122.051C121.187 113.163 118.018 104.899 117.987 104.816C117.576 103.716 116.348 103.153 115.247 103.558C114.145 103.965 113.578 105.183 113.982 106.285C114.118 106.656 117.444 115.482 128.596 125.072C138.737 133.793 157.636 144.871 190.082 148.118C201.882 149.299 211.993 149.782 220.631 149.782L220.632 149.781Z" fill="#000072"/>
<path d="M102.383 179.773C103.423 179.773 104.334 179.012 104.492 177.955C104.664 176.792 103.859 175.709 102.694 175.537C102.623 175.526 95.275 174.401 87.2403 170.658C87.208 170.643 87.1757 170.63 87.1434 170.615C74.1113 165.314 65.1329 156.398 60.4546 144.113C52.7605 123.905 56.9434 94.0569 71.6449 64.2692C89.1049 28.8837 101.372 14.0785 153.21 10.121C179.239 8.13414 190.266 13.5868 194.934 18.5103C199.397 23.2201 198.803 28.1247 198.775 28.3316C198.62 29.4909 199.431 30.5656 200.591 30.7295C201.745 30.8934 202.826 30.1008 202.998 28.9441C203.041 28.662 203.968 21.9439 198.146 15.704C190.471 7.47589 175.242 4.17122 152.884 5.87595C126.641 7.8789 110.133 12.5538 97.6848 21.5086C85.1684 30.5132 76.9749 43.8272 67.8147 62.3885C52.6003 93.2173 48.3568 124.334 56.4642 145.626C61.572 159.045 71.3353 168.772 85.4821 174.539C94.0902 178.538 101.747 179.702 102.068 179.749C102.175 179.763 102.28 179.771 102.383 179.771V179.773Z" fill="#000072"/>
<path d="M255.369 159.72C255.96 159.72 256.682 159.57 257.448 159.074C261.336 156.555 264.012 145.114 264.74 141.667C264.984 140.517 264.246 139.387 263.093 139.144C261.939 138.901 260.808 139.637 260.564 140.788C259.122 147.603 256.713 154.222 255.28 155.395C253.507 154.602 250.203 149.402 248.192 144.919C247.71 143.846 246.448 143.366 245.373 143.846C244.297 144.325 243.815 145.585 244.297 146.659C245.55 149.454 249.997 158.652 254.637 159.644C254.847 159.688 255.093 159.72 255.368 159.72H255.369Z" fill="#000072"/>
<path d="M221.673 161.276C226.187 161.276 229.89 153.189 231.756 148.166C232.166 147.063 231.602 145.839 230.498 145.43C229.39 145.021 228.164 145.584 227.755 146.686C225.881 151.723 223.019 156.582 221.689 157.005C220.267 156.538 217.386 151.796 215.566 146.894C215.157 145.791 213.933 145.228 212.824 145.637C211.718 146.045 211.154 147.269 211.563 148.372C212.583 151.12 216.263 160.169 220.843 161.185C221.123 161.246 221.399 161.276 221.673 161.276Z" fill="#000072"/>
<path d="M192.993 160.639C191.999 160.459 189.36 159.981 185.436 146.279C185.111 145.148 185.768 143.969 186.901 143.647C188.032 143.326 189.214 143.979 189.538 145.109C190.898 149.856 192.699 154.476 193.779 156.111C195.599 154.731 199.532 150.032 202.539 145.878C203.23 144.926 204.563 144.711 205.519 145.4C206.473 146.089 206.688 147.419 205.998 148.373C197.962 159.475 194.941 160.701 193.555 160.701C193.328 160.701 193.143 160.667 192.99 160.641L192.993 160.639Z" fill="#000072"/>
<path d="M158.984 155.188C155.473 153.425 154.271 144.006 153.865 138.548C153.779 137.375 154.661 136.354 155.836 136.268C157.016 136.181 158.035 137.062 158.121 138.235C158.546 143.983 159.755 149.778 160.789 151.216C162.459 150.599 166.751 146.398 170.363 141.796C171.089 140.87 172.431 140.706 173.358 141.432C174.286 142.156 174.45 143.494 173.723 144.421C167.935 151.8 163.477 155.52 160.43 155.52C159.905 155.52 159.422 155.409 158.983 155.188H158.984Z" fill="#000072"/>
<path d="M133.621 145.079C138.323 145.079 145.461 137.732 147.553 135.461C148.351 134.595 148.293 133.249 147.426 132.453C146.559 131.656 145.21 131.713 144.412 132.578C140.263 137.077 135.24 140.96 133.671 140.829C132.325 138.918 132.865 131.521 134.16 125.641C134.413 124.492 133.685 123.357 132.534 123.104C131.382 122.85 130.244 123.579 129.992 124.727C129.461 127.134 126.99 139.358 130.416 143.591C131.171 144.523 132.231 145.036 133.48 145.076C133.526 145.078 133.573 145.079 133.62 145.079H133.621Z" fill="#000072"/>
<path d="M158.021 183.158C201.83 183.158 239.896 169.151 241.901 168.401C248.698 165.857 252.11 155.114 252.474 153.898C252.814 152.772 252.174 151.585 251.045 151.246C249.919 150.909 248.728 151.546 248.387 152.67C247.555 155.416 244.498 162.88 240.4 164.414C237.914 165.344 178.885 187.059 123.55 175.559C122.395 175.319 121.265 176.057 121.025 177.208C120.786 178.359 121.526 179.487 122.68 179.727C134.487 182.181 146.456 183.158 158.02 183.158H158.021Z" fill="#000072"/>
<path d="M221.424 79.3028C221.424 74.3041 223.193 68.924 227.077 68.924C230.961 68.924 232.728 74.3041 232.728 79.3028C232.728 84.3014 230.959 89.6816 227.077 89.6816C223.194 89.6816 221.424 84.3014 221.424 79.3028ZM225.691 79.3028C225.691 82.512 226.539 84.5714 227.077 85.2525C227.612 84.5714 228.461 82.512 228.461 79.3028C228.461 76.0935 227.612 74.0341 227.077 73.353C226.541 74.0341 225.691 76.0935 225.691 79.3028Z" fill="#000072"/>
<path d="M254.319 77.1896C254.319 72.1909 256.088 66.8108 259.971 66.8108C263.853 66.8108 265.622 72.1909 265.622 77.1896C265.622 82.1882 263.853 87.5684 259.971 87.5684C256.088 87.5684 254.319 82.1882 254.319 77.1896ZM258.587 77.1896C258.587 80.3989 259.435 82.4583 259.971 83.1393C260.506 82.4583 261.355 80.3989 261.355 77.1896C261.355 73.9803 260.506 71.9209 259.971 71.2399C259.435 71.9209 258.587 73.9803 258.587 77.1896Z" fill="#000072"/>
<path d="M126.306 102.931C122.711 99.39 116.549 98.952 112.28 101.789C108.113 104.53 105.881 109.711 106.32 114.586C107.808 112.703 109.025 110.882 110.37 109.303C114.522 103.995 119.604 102.618 126.306 102.93V102.931Z" fill="#000072"/>
<path d="M131.466 55.747C137.736 55.747 142.819 49.4174 142.819 41.6095C142.819 33.8015 137.736 27.4719 131.466 27.4719C125.196 27.4719 120.113 33.8015 120.113 41.6095C120.113 49.4174 125.196 55.747 131.466 55.747Z" fill="#000072"/>
<path d="M134.657 42.3576C136.594 42.3576 138.164 40.2616 138.164 37.676C138.164 35.0904 136.594 32.9944 134.657 32.9944C132.72 32.9944 131.15 35.0904 131.15 37.676C131.15 40.2616 132.72 42.3576 134.657 42.3576Z" fill="white"/>
<g opacity="0.35">
<path d="M128.099 50.6967C129.072 50.3233 129.314 48.6037 128.641 46.8559C127.967 45.1082 126.632 43.9941 125.659 44.3675C124.686 44.741 124.444 46.4605 125.117 48.2083C125.791 49.956 127.126 51.0701 128.099 50.6967Z" fill="white"/>
</g>
<path d="M-0.34119 231.679C0.314452 234.555 3.26148 246.534 7.16706 248.018C7.43363 248.119 7.70424 248.167 7.97753 248.167C11.9302 248.167 16.4066 238.127 17.7489 234.884C19.9447 235.283 22.1499 235.686 24.3376 236.088C24.5005 240.063 25.5345 262.365 28.3994 266.655C28.7292 267.149 29.191 267.414 29.712 267.414C29.7713 267.414 29.8305 267.41 29.8897 267.404C33.8882 266.954 42.3846 245.523 44.5629 239.863C47.0441 240.333 49.2871 240.76 51.1988 241.125C51.3927 241.163 51.5933 241.119 51.7535 241.006C51.915 240.893 52.0227 240.718 52.0537 240.523C52.0591 240.489 52.2031 239.644 52.6245 238.198C60.3239 246.817 68.0557 250.926 73.0491 250.926C74.4963 250.926 75.7134 250.583 76.6329 249.904C77.03 249.611 77.2751 249.172 77.3599 248.6C78.1044 243.546 64.414 224.832 61.6379 221.098C62.8065 219.576 64.1205 218.015 65.5798 216.44C68.7894 218.103 85.9802 226.818 93.6621 226.818C94.1495 226.818 94.5991 226.784 95.0043 226.708C96.2281 226.484 96.6912 225.765 96.8649 225.202C98.2879 220.584 84.02 205.992 80.0673 202.064C82.3062 199.28 84.191 196.44 85.7809 193.679C87.9673 193.972 97.1059 195.134 104.659 195.134C108.936 195.134 112.704 194.762 114.412 193.647C115.037 193.24 115.363 192.643 115.352 191.923C115.285 187.095 96.8245 175.487 93.5907 173.491L122.52 178.4C137.791 181.107 153.239 181.734 164.268 181.734C168.975 181.734 172.876 181.62 175.615 181.504L175.596 182.285C171.785 185.776 173.638 191.473 175.405 194.449C168.937 201.558 170.764 208.831 171.487 210.917C164.567 215.538 160.78 220.343 158.94 222.681C158.699 222.987 158.454 223.298 158.248 223.546C156.589 220.991 150.879 212.446 144.565 205.833C136.788 197.682 126.754 202.258 126.653 202.305C126.289 202.475 126.135 202.907 126.306 203.269C126.475 203.632 126.906 203.789 127.272 203.619C127.644 203.447 136.47 199.456 143.512 206.833C150.879 214.551 157.432 224.963 157.498 225.068C157.634 225.286 157.869 225.409 158.114 225.409C158.206 225.409 158.297 225.392 158.385 225.357C158.818 225.184 159.214 224.68 160.084 223.577C161.92 221.246 165.742 216.397 172.774 211.808C173.077 211.61 173.189 211.221 173.035 210.894C172.884 210.569 169.419 202.799 176.844 195.037C177.077 194.794 177.11 194.422 176.926 194.14C176.879 194.067 172.277 186.905 176.783 183.158C180.861 179.766 186.603 180.241 188.164 180.443C188.636 181.868 190.078 187.142 188.013 193.324C187.886 193.705 188.092 194.116 188.472 194.242C188.857 194.371 189.265 194.163 189.391 193.784C191.139 188.552 190.568 184.008 189.98 181.523C192.931 182.273 200.486 184.664 200.081 189.419C199.542 195.737 198.998 197.369 198.993 197.385C198.934 197.559 198.939 197.755 199.015 197.923C199.392 198.768 200.323 201.279 200.105 202.715C199.902 204.04 196.19 210.46 193.899 214.194C193.687 214.597 175.285 249.801 164.581 249.805C164.5 249.805 164.422 249.802 164.342 249.798C158.905 249.528 153.367 243.764 148.012 238.189C142.629 232.586 137.064 226.793 131.186 226.025C130.787 225.971 130.423 226.252 130.37 226.649C130.318 227.047 130.598 227.411 130.996 227.463C136.368 228.166 141.753 233.773 146.96 239.194C152.512 244.973 158.253 250.949 164.268 251.249C164.361 251.253 164.457 251.256 164.551 251.256C176.16 251.258 194.386 216.402 195.162 214.907C195.322 214.648 195.832 213.813 196.497 212.696C196.886 214.951 197.279 217.275 197.666 219.654C197.668 219.665 197.666 219.676 197.667 219.688C197.667 219.693 197.671 219.697 197.672 219.701C198.646 225.702 199.556 232.066 200.145 238.643C200.128 238.737 200.128 238.836 200.152 238.937C200.158 238.958 200.17 238.975 200.176 238.995C201.983 259.564 200.583 282.164 187.896 302.117C173.396 324.92 139.214 329.144 125.33 329.907C132.727 327.301 138.631 322.771 142.705 316.497C149.708 305.71 150.424 290.973 144.72 274.998C140.338 262.724 129.848 247.857 104.762 246.741C104.263 246.719 103.748 246.695 103.583 246.668C103.257 246.538 102.876 246.659 102.689 246.969C102.483 247.313 102.593 247.759 102.938 247.964C103.206 248.124 103.522 248.139 104.695 248.191C128.974 249.271 139.116 263.631 143.347 275.486C148.895 291.024 148.233 305.31 141.481 315.707C135.68 324.642 125.965 329.888 113.388 330.878C113.19 330.894 113.008 330.989 112.883 331.141C112.769 331.281 112.719 331.46 112.727 331.638C110.304 331.771 107.878 331.802 105.461 331.731C102.811 331.638 102.793 332.604 105.47 332.456C107.903 332.307 110.322 332.056 112.724 331.704C112.797 332.297 114.192 342.928 120.836 348.989C122.474 350.483 124.335 352.102 126.306 353.816C126.551 354.029 126.805 354.25 127.062 354.474L122.298 353.638C122.067 353.598 121.829 353.671 121.661 353.837C121.494 354.003 121.416 354.239 121.454 354.47L122.984 363.87C110.046 356.032 109.866 356.147 109.384 356.464C109.002 356.719 108.979 356.735 108.264 362.274C108.051 363.917 107.783 365.992 107.588 367.209C104.477 364.725 95.5281 358.48 93.2528 358.48C93.2178 358.48 93.1842 358.481 93.1532 358.484C92.6914 358.528 92.3454 358.8 92.2296 359.213C91.7894 360.778 91.2078 369.32 91.0126 372.356C88.5408 371.486 81.6922 369.086 78.9606 368.178C76.3582 367.311 71.3083 355.663 69.3185 339.38C67.6303 325.569 84.2219 317.223 86.2602 316.253C87.6873 316.748 89.1641 317.165 90.6908 317.494C90.9843 317.557 91.2899 317.624 91.368 317.653C91.4811 317.72 91.6023 317.752 91.7208 317.752C91.9631 317.752 92.196 317.619 92.3347 317.388C92.542 317.044 92.3979 316.582 92.0533 316.376C91.8648 316.264 91.6292 316.212 90.9991 316.075C74.7508 312.565 64.2524 299.094 61.4373 278.142C61.3835 277.745 61.0227 277.466 60.6201 277.518C60.2216 277.572 59.9429 277.937 59.9954 278.334C62.5211 297.134 71.1064 310.102 84.4239 315.556C81.8928 316.903 76.5696 320.097 72.6115 324.932C71.7445 324.563 40.4796 311.202 23.4679 296.782C6.06176 281.841 -5.32784 264.442 -11.7254 250.913C-13.3827 244.664 -6.54085 233.151 -5.12994 230.873C-3.6221 231.123 -2.02001 231.393 -0.343884 231.679H-0.34119Z" fill="#5FE03F"/>
<path d="M70.7591 305.457C70.7591 305.457 58.0474 306.253 44.1012 300.846C30.155 295.439 13.8999 282.168 8.36395 277.768C2.82801 273.367 -0.561951 270.091 -0.561951 270.091C-0.561951 270.091 8.07988 284.199 18.9956 293.86C29.9113 303.522 40.0421 309.96 46.9742 312.994C53.9062 316.027 70.584 325.042 70.7591 325.04C70.9354 325.036 72.5887 325.29 72.9764 325.04C73.3628 324.79 74.736 323.878 75.3337 323.14C75.9315 322.403 81.0689 318.225 83.1099 316.996C85.1509 315.766 85.5373 315.766 85.5373 315.766L83.7777 314.257C83.7777 314.257 77.022 310.29 76.7406 310.079C76.4592 309.868 70.7591 305.457 70.7591 305.457Z" fill="#C8E990"/>
<path d="M143.425 235.569C143.425 235.569 137.772 249.868 130.091 254.783C130.091 254.783 138.932 261.347 143.241 273.32C147.549 285.294 147.792 295.65 147.792 295.65C147.792 295.65 147.884 305.691 143.451 313.836C139.017 321.981 129.811 328.441 129.347 328.23C128.884 328.019 124.286 329.261 124.286 329.494C124.286 329.728 126.867 330.57 126.867 330.57C126.867 330.57 141.832 330.476 157.877 324.438C173.922 318.399 178.754 313.109 183.539 308.991C188.324 304.872 192.453 296.024 196.675 284.883C200.897 273.742 201.319 262.273 201.319 262.273L201.742 250.529L200.782 237.868L198.74 220.892C198.74 220.892 198.619 217.287 198.374 217.007C198.129 216.726 196.582 211.389 196.582 211.389C196.582 211.389 183.305 235.544 173.875 245.42C164.446 255.298 155.955 246.543 155.955 246.543L143.426 235.568L143.425 235.569Z" fill="#C8E990"/>
<path d="M149.292 181.018C149.292 181.018 150.348 193.265 148.787 210.612C148.787 210.612 152.071 215.811 152.142 215.987C152.212 216.163 156.364 221.218 156.47 221.64C156.576 222.062 157.737 224.203 157.737 224.203C157.737 224.203 158.758 223.992 158.934 223.781C159.111 223.57 162.101 219.884 162.417 219.603C162.733 219.323 168.364 214.618 169.031 213.811C169.7 213.003 171.916 211.037 171.916 211.037C171.916 211.037 171.001 206.999 171.916 202.786C172.832 198.573 175.857 194.641 175.857 194.641C175.857 194.641 173.922 189.586 174.204 186.917C174.485 184.249 176.491 182.107 176.491 182.107C176.491 182.107 176.491 181.23 176.386 181.159C176.281 181.089 176.105 181.052 175.823 181.017C175.542 180.982 156.365 180.91 155.556 181.017C154.747 181.123 149.293 181.017 149.293 181.017L149.292 181.018Z" fill="#C8E990"/>
<path d="M235.144 249.576L295.522 232.36C295.522 232.36 288.485 228.709 286.233 226.227C283.98 223.746 283.417 219.955 283.417 219.955L229.727 232.313L229.279 233.545C229.279 233.545 235.378 245.212 235.144 249.576Z" fill="#EF143E"/>
<path d="M198.972 218.612C198.529 215.912 198.076 213.288 197.639 210.753C198.092 209.971 198.565 209.143 199.019 208.323L282.367 186.956C280.905 189.605 278.009 195.182 277.29 199.004L198.972 218.612Z" fill="#EF143E"/>
<path d="M113.897 191.943C113.899 192.125 113.852 192.277 113.615 192.431C109.983 194.801 93.724 193.259 86.5469 192.316C90.6356 184.829 92.5325 178.116 93.2649 174.996C101.512 180.118 113.855 188.874 113.898 191.942L113.897 191.943Z" fill="#C8E990"/>
<path d="M77.8257 176.027C79.2137 175.372 85.7823 174.448 92.0331 173.846C91.5013 176.336 89.704 183.514 85.2774 191.621C80.5735 185.967 78.243 177.959 77.8257 176.027Z" fill="#C8E990"/>
<path d="M95.4742 224.775C95.4379 224.893 95.353 225.169 94.7405 225.282C88.6997 226.403 70.7469 217.455 66.6192 215.342C68.2549 213.652 70.0603 211.95 72.073 210.26C74.7333 208.025 77.0624 205.631 79.1289 203.182C86.1606 210.181 96.3991 221.781 95.4756 224.777L95.4742 224.775Z" fill="#C8E990"/>
<path d="M177.106 179.982L177.296 172.193C182.839 174.79 184.553 177.54 185.075 178.846C183.519 178.899 181.642 179.147 179.763 179.828C179.456 179.849 178.536 179.911 177.106 179.982Z" fill="white"/>
<path d="M320.509 202.47C320.628 202.251 320.626 201.988 320.504 201.77C320.383 201.554 320.158 201.413 319.909 201.401C319.887 201.399 317.523 201.242 316.202 199.685C315.434 198.78 316.706 195.628 317.926 193.511L337.377 197.473L319.818 211.976C316.71 209.594 320.469 202.544 320.509 202.47Z" fill="#000072"/>
<path d="M210.016 254.586C208.606 255.219 207.298 254.912 206.694 254.701L205.361 240.667L214.15 248.421C213.215 251.692 211.83 253.774 210.016 254.587V254.586Z" fill="white"/>
<path d="M210.586 255.921C212.787 254.947 214.44 252.619 215.505 248.996C217.762 249.343 220.091 249.743 220.748 249.923C221.072 250.575 221.871 253.103 222.48 255.26C222.573 255.589 222.895 255.811 223.225 255.787C223.567 255.765 223.848 255.51 223.899 255.171L225.049 247.651C226.744 247.99 230.879 248.631 234.442 247.739C234.473 251.117 234.037 262.709 226.709 264.039C218.553 265.514 211.833 261.308 207.811 256.395C208.615 256.456 209.578 256.366 210.585 255.92L210.586 255.921Z" fill="#7AC633"/>
<path d="M284.606 219.633C285.795 215.052 289.877 209.204 289.924 209.136C290.056 208.949 290.091 208.713 290.021 208.496C289.951 208.28 289.783 208.108 289.567 208.034C286.358 206.917 278.141 203.237 278.649 199.693C279.236 195.591 283.162 188.484 284.209 186.644L316.427 193.205C315.401 195.063 313.611 198.877 315.092 200.622C316.19 201.917 317.753 202.462 318.78 202.689C317.779 204.863 315.719 210.305 318.682 212.912L296.389 231.325C292.63 229.653 284.186 225.151 284.286 221.659C284.303 221.031 284.42 220.346 284.606 219.631V219.633Z" fill="#EFD9BC"/>
<path d="M225.317 246.222C226.111 242.651 227.47 236.504 228.147 233.229C229.531 236.137 232.207 242.019 234.142 246.317C230.865 247.152 226.891 246.531 225.318 246.222H225.317Z" fill="white"/>
<path d="M10.4857 225.381C14.0008 226.019 15.7268 230.953 16.3272 233.147C11.2638 232.231 6.2139 231.333 1.59747 230.54C3.1659 228.682 6.9584 224.744 10.487 225.381H10.4857Z" fill="#C8E990"/>
<path d="M7.68542 246.661C5.24056 245.732 2.53855 237.553 1.21381 231.945C5.87466 232.748 11.0309 233.666 16.2842 234.617C13.9241 240.224 9.81525 247.466 7.68407 246.66L7.68542 246.661Z" fill="#C8E990"/>
<path d="M223.738 246.621C223.735 246.63 223.738 246.638 223.738 246.648C223.737 246.656 223.731 246.661 223.73 246.669L222.953 251.747C222.079 249.009 221.791 248.827 221.6 248.707C221.465 248.623 221.048 248.365 215.299 247.497L205.129 238.526L226.6 233.545C225.915 236.782 224.663 242.47 223.738 246.621Z" fill="#EF143E"/>
<path d="M35.7071 225.396C36.9066 225.188 40.2077 230.983 42.9582 238.081C38.4306 237.225 32.5971 236.132 26.3261 234.975C29.2637 231.109 33.8788 225.738 35.7071 225.396Z" fill="#C8E990"/>
<path d="M49.555 221.391C50.7115 218.942 56.5853 220.396 59.5377 221.421C55.7237 226.614 53.501 231.296 52.2274 234.703C50.6374 230.783 48.3433 223.959 49.5563 221.391H49.555Z" fill="#C8E990"/>
<path d="M75.9207 248.389C75.8951 248.565 75.844 248.682 75.7686 248.738C72.7785 250.944 63.551 248.576 53.1361 236.589C54.2724 233.255 56.5059 228.103 60.7305 222.313C67.33 231.209 76.4309 244.93 75.922 248.389H75.9207Z" fill="#C8E990"/>
<path d="M71.1346 209.148C69.0196 210.925 67.1267 212.708 65.4196 214.474C64.0787 212.962 60.5824 208.472 61.436 203.65C61.5625 202.932 61.9543 202.377 62.6315 201.956C65.7468 200.017 73.7976 201.506 77.7839 202.522C75.8251 204.814 73.6293 207.052 71.136 209.148H71.1346Z" fill="#C8E990"/>
<path d="M29.7646 265.967C29.7457 265.967 29.7282 265.965 29.7107 265.963C29.712 265.963 29.673 265.943 29.6111 265.85C27.3345 262.442 26.1309 244.211 25.8051 236.358C32.0102 237.501 38.0038 238.623 43.1117 239.587C37.5367 254.063 31.5201 265.967 29.7646 265.967Z" fill="#C8E990"/>
<path d="M199.204 220.049L277.214 200.518C277.799 204.728 285.427 208.017 288.208 209.081C287.062 210.814 284.394 215.099 283.306 218.901L228.922 231.516C228.216 230.215 228.019 230.252 227.68 230.326C227.345 230.397 227.1 230.708 227.1 231.05C227.089 231.152 227.027 231.48 226.926 231.98L201.544 237.868C200.968 231.694 200.117 225.714 199.206 220.049H199.204Z" fill="#EF143E"/>
<path d="M197.781 354.678C198.448 349.59 201.867 348.605 202.927 348.426C208.076 353.659 213.199 359.442 213.763 361.054C212.364 361.446 207.072 361.147 202.464 360.598C201.058 358.586 199.239 356.28 197.781 354.678Z" fill="white"/>
<path d="M110.304 358.09C112.458 359.242 118.909 363.093 123.231 365.714V374.31L108.913 368.09C109.097 367.194 109.31 365.55 109.71 362.458C109.909 360.917 110.143 359.098 110.304 358.092V358.09Z" fill="white"/>
<path d="M194.861 353.837C195.081 354.011 195.21 354.086 195.299 354.117C195.195 354.09 195.124 354.052 195.12 354.05C195.337 354.201 195.809 354.688 196.412 355.357C196.443 355.401 196.478 355.437 196.519 355.475C198.714 357.932 202.563 362.757 203.149 364.358C201.243 364.506 194.864 364.461 187.232 364.219C186.769 362.018 187.039 360.065 188.057 358.414C189.93 355.375 193.782 354.134 194.86 353.837H194.861Z" fill="white"/>
<path d="M129.175 356.316C133.254 359.908 137.662 363.966 137.693 365.146C136.918 365.881 131.036 365.659 124.593 364.669L123.058 355.244L129.175 356.317V356.316Z" fill="white"/>
<path d="M189.126 302.893C197.266 290.091 200.832 276.261 201.905 262.576C204.856 266.978 215.814 284.802 214.058 304.385C212.115 326.057 181.32 328.691 179.714 328.812C179.71 328.812 179.707 328.81 179.703 328.81C179.674 328.81 179.641 328.816 179.615 328.82L168.011 330.799L179.386 330.281C181.425 332.491 191.982 343.82 194.857 344.744C196.905 345.404 199.89 346.693 201.408 347.368C199.743 348.004 197.369 349.575 196.521 353.394C196.156 353.059 195.855 352.834 195.639 352.741C195.635 352.732 195.633 352.722 195.627 352.714C195.728 352.741 195.792 352.78 195.796 352.783C194.955 352.208 185.797 342.627 180.222 336.723C179.947 336.431 179.487 336.417 179.195 336.692C178.902 336.967 178.889 337.425 179.164 337.717C187.792 346.854 191.735 350.906 193.608 352.705C191.843 353.303 188.624 354.735 186.825 357.647C185.655 359.541 185.295 361.734 185.737 364.172C171.351 363.679 153.39 362.517 152.197 360.68C151.43 359.067 150.987 356.023 150.519 352.8C149.949 348.887 149.304 344.453 147.892 341.323C145.87 336.84 141.939 331.74 140.284 329.686C156.601 326.926 178.227 320.038 189.127 302.896L189.126 302.893Z" fill="#5FE03F"/>
<path d="M107.334 368.828C107.529 369.823 108.403 374.282 108.807 376.235C106.472 375.954 99.1657 374.373 92.4451 372.791C92.6672 369.309 93.1855 361.993 93.5558 359.956C95.8135 360.478 105.869 367.405 107.332 368.828H107.334Z" fill="white"/>
<g opacity="0.25">
<path d="M282.953 220.472C282.89 220.866 282.843 221.253 282.832 221.621C282.746 224.627 286.685 227.67 290.332 229.836L235.227 245.19C232.271 238.61 230.604 234.916 229.6 232.85L282.953 220.474V220.472Z" fill="#000072"/>
</g>
<g opacity="0.25">
<path d="M284.606 219.633C285.021 218.034 285.79 216.285 286.614 214.677L318.152 204.199C317.452 206.076 316.787 208.695 317.39 210.804L291.979 229.094C288.245 226.982 284.215 224.079 284.285 221.66C284.302 221.033 284.419 220.348 284.605 219.633H284.606Z" fill="#000072"/>
</g>
<g opacity="0.25">
<path d="M227.678 230.326C227.343 230.397 227.098 230.707 227.098 231.05C227.087 231.152 227.025 231.48 226.924 231.98L201.543 237.868C201.034 232.407 200.306 227.113 199.513 222.04C201.552 223.08 213.781 228.538 236.55 223.092C258.709 217.792 282.507 211.278 287.712 209.844C286.42 211.876 284.256 215.575 283.304 218.902L228.921 231.518C228.214 230.216 228.018 230.253 227.678 230.327V230.326Z" fill="#000072"/>
</g>
<g opacity="0.25">
<path d="M319.972 203.596L336.685 198.044L320.239 211.628L319.677 211.837C317.551 209.958 319.067 205.65 319.971 203.597L319.972 203.596Z" fill="#000072"/>
</g>
<g opacity="0.25">
<path d="M233.667 251.747C233.667 251.747 233.796 253.307 233.707 255.208C232.816 259.206 230.88 263.284 226.712 264.04C218.556 265.515 211.835 261.309 207.814 256.397C208.618 256.457 209.58 256.367 210.587 255.921C212.094 255.255 213.338 253.937 214.318 252.021C214.326 252.017 214.338 252.012 214.338 252.012L222.293 254.599C222.358 254.822 222.421 255.044 222.483 255.261C222.576 255.591 222.898 255.812 223.228 255.788C223.57 255.767 223.851 255.511 223.902 255.173L224.418 251.805L224.451 251.747H233.669H233.667Z" fill="#000072"/>
</g>
<g opacity="0.25">
<path d="M210.016 254.586C208.606 255.219 207.298 254.912 206.694 254.701L205.545 242.603C207.001 245.03 211.787 253.036 211.772 253.246C211.24 253.846 210.656 254.298 210.016 254.586Z" fill="#3C0A09"/>
</g>
<g opacity="0.25">
<path d="M223.738 246.621C223.735 246.63 223.738 246.638 223.738 246.648C223.736 246.656 223.731 246.661 223.73 246.669L223.007 251.398L222.869 251.489C222.063 249.005 221.784 248.824 221.6 248.709C221.465 248.624 221.048 248.366 215.299 247.498L205.325 238.698L226.496 234.036C225.794 237.334 224.618 242.671 223.739 246.622L223.738 246.621Z" fill="#000072"/>
</g>
<g opacity="0.25">
<path d="M203.191 365.791C203.183 365.808 203.078 365.811 202.897 365.801C203.005 365.797 203.098 365.793 203.189 365.789L203.191 365.791Z" fill="#3C0A09"/>
</g>
<g opacity="0.25">
<path d="M128.387 240.287C132.609 234.035 129.512 227.721 129.512 227.721L130.456 226.946C130.55 227.013 130.655 227.067 130.779 227.083C136.151 227.786 141.536 233.393 146.744 238.813C152.296 244.592 158.036 250.569 164.051 250.869C164.144 250.873 164.24 250.875 164.334 250.875C169.516 250.875 176.015 243.933 181.693 236.11C179.655 241.732 174.291 254.846 167.841 257.259C159.584 260.349 155.831 256.509 155.831 256.509C155.831 256.509 146.715 291.288 168.78 294.52C182.259 296.495 190.814 289.058 195.437 282.97C194.842 285.972 194.15 288.57 193.458 290.775C191.863 294.494 189.957 298.158 187.682 301.735C173.182 324.539 139 328.762 125.115 329.525C132.513 326.919 138.417 322.389 142.491 316.116C149.494 305.328 150.21 290.592 144.506 274.617C140.4 263.113 130.927 249.333 109.105 246.728C114.874 246.239 125.374 244.748 128.387 240.287Z" fill="#000072"/>
</g>
<g opacity="0.25">
<path d="M95.283 364.743C95.6183 364.133 104.162 373.273 106.556 375.864C103.234 375.245 97.6687 374.02 92.4451 372.791C92.4774 372.288 92.5164 371.7 92.5595 371.066C93.4723 370.24 94.9465 365.353 95.283 364.744V364.743Z" fill="#000072"/>
</g>
<g opacity="0.25">
<path d="M89.5236 341.243C86.897 346.392 103.832 360.41 103.832 360.41C103.832 360.41 95.3881 358.141 94.4201 358.09C93.9677 358.066 93.8573 358.312 93.8627 358.581C93.6312 358.519 93.4225 358.477 93.2569 358.477C93.2219 358.477 93.1882 358.479 93.1573 358.481C92.6955 358.526 92.3495 358.797 92.2337 359.211C91.7935 360.776 91.2119 369.317 91.0167 372.353C88.5449 371.484 81.6963 369.083 78.9647 368.175C76.3623 367.309 71.3124 355.66 69.3226 339.377C67.6343 325.566 84.226 317.22 86.2643 316.25C87.6913 316.746 89.1682 317.162 90.6949 317.491C90.9884 317.554 91.294 317.622 91.3721 317.65C91.4852 317.717 91.6063 317.749 91.7248 317.749C91.9672 317.749 92.2001 317.616 92.3387 317.385C92.5461 317.041 92.402 316.579 92.0574 316.374C91.8689 316.261 91.6333 316.21 91.0032 316.073C74.7549 312.563 64.2565 299.091 61.4414 278.139C61.3875 277.743 61.0267 277.463 60.6242 277.516C60.2257 277.569 59.947 277.935 59.9995 278.331C62.5252 297.131 71.1104 310.099 84.4279 315.553C81.8969 316.9 76.5737 320.095 72.6156 324.93C71.7486 324.56 40.4837 311.199 23.472 296.779C6.06583 281.839 -5.32377 264.439 -11.7213 250.91C-12.311 248.687 -11.8223 245.797 -10.888 242.894C-6.73872 249.814 -0.718116 258.33 7.28423 265.963C24.4548 282.342 51.0548 289.888 51.0548 289.888C40.4056 263.324 48.8644 243.799 50.2349 240.937C50.5607 240.999 50.8905 241.062 51.1988 241.121C51.3927 241.159 51.5933 241.115 51.7535 241.002C51.9151 240.889 52.0228 240.714 52.0537 240.519C52.0578 240.491 52.1493 239.963 52.3889 239.046L52.6959 238.273C60.3711 246.837 68.0705 250.924 73.0478 250.924C74.495 250.924 75.7121 250.58 76.6316 249.901C77.0287 249.609 77.2738 249.169 77.3586 248.597C77.574 247.133 76.575 244.521 74.9851 241.461C74.9824 241.454 74.9797 241.446 74.9797 241.446C74.9797 241.446 80.14 247.991 79.2959 251.159C78.4518 254.325 75.9396 255.992 75.9396 255.992C75.9396 255.992 78.7789 291.714 102.987 300.421C127.194 309.128 142.886 300.983 142.886 300.983C142.886 310.406 137.823 319.031 135.506 322.486C129.834 327.298 122.342 330.169 113.389 330.874C113.191 330.89 113.01 330.985 112.884 331.137C112.77 331.277 112.72 331.456 112.728 331.634C110.305 331.767 107.879 331.798 105.462 331.727C102.813 331.634 102.794 332.6 105.472 332.452C107.905 332.303 110.324 332.052 112.726 331.7C112.763 332.004 113.15 334.94 114.406 338.546V338.55C114.406 338.55 92.1462 336.091 89.5182 341.241L89.5236 341.243Z" fill="#000072"/>
</g>
<g opacity="0.25">
<path d="M166.321 338.481C165.549 341.568 184.187 354.751 187.326 356.946C187.154 357.173 186.977 357.396 186.824 357.644C185.654 359.539 185.293 361.731 185.736 364.169C171.35 363.676 153.389 362.514 152.196 360.678C151.429 359.064 150.986 356.02 150.517 352.798C149.948 348.884 149.303 344.45 147.891 341.32C145.868 336.837 141.937 331.738 140.283 329.684C156.6 326.923 178.225 320.036 189.126 302.893C194.569 294.332 197.959 285.311 199.934 276.182C199.941 276.164 199.95 276.141 199.95 276.141C202.476 286.312 196.486 304.637 198.269 309.038C200.051 313.438 209.903 309.038 209.903 309.038C206.901 318.68 192.185 326.327 192.185 326.327C185.81 328.3 180.366 328.762 179.714 328.812C179.71 328.812 179.707 328.81 179.703 328.81C179.674 328.81 179.641 328.816 179.615 328.82L168.011 330.799L179.386 330.281C179.55 330.459 179.775 330.702 180.04 330.987C177.479 331.851 167.062 335.529 166.321 338.483V338.481Z" fill="#000072"/>
</g>
<g opacity="0.25">
<path d="M201.622 364.422C198.802 364.482 193.432 364.415 187.235 364.219C187.033 363.258 186.979 362.347 187.057 361.485C188.33 360.451 191.378 358.042 192.289 357.932C193.153 357.827 198.817 362.142 201.622 364.422Z" fill="#000072"/>
</g>
<g opacity="0.25">
<path d="M112.242 363.198C112.604 363.098 121.79 372.947 122.94 374.181L108.99 368.121C109.433 367.271 111.892 363.293 112.242 363.197V363.198Z" fill="#000072"/>
</g>
<g opacity="0.25">
<path d="M126.07 359.372C126.07 359.196 137.692 365.146 137.692 365.146C136.965 365.835 131.739 365.682 125.772 364.842C125.591 364.522 125.437 364.17 125.437 364.17C125.437 364.17 126.07 359.548 126.07 359.372Z" fill="#000072"/>
</g>
<g opacity="0.25">
<path d="M212.996 361.173C210.952 361.36 206.453 361.073 202.462 360.598C201.469 359.174 200.268 357.608 199.134 356.245C199.607 355.379 200.587 353.626 201.084 353.053C201.688 352.354 211.186 359.755 212.996 361.173Z" fill="#000072"/>
</g>
<g opacity="0.25">
<path d="M143.569 228.616C149.668 231.986 155.861 237.229 163.742 239.983C171.623 242.737 199.204 200.998 199.204 200.998H199.992C200.114 201.621 200.178 202.23 200.104 202.714C199.9 204.04 196.189 210.46 193.897 214.194C193.686 214.597 175.284 249.801 164.579 249.805C164.498 249.805 164.42 249.802 164.341 249.798C158.903 249.528 153.366 243.764 148.01 238.189C142.886 232.854 137.596 227.358 132.027 226.179C132.017 226.174 132.008 226.168 132.008 226.168C132.008 226.168 137.469 225.245 143.568 228.616H143.569Z" fill="#000072"/>
</g>
<g opacity="0.25">
<path d="M136.485 190.464C121.828 187.591 108.854 182.13 101.103 178.393C97.8019 176.125 94.9101 174.309 93.7079 173.565L93.716 173.513L122.517 178.398C137.788 181.105 153.237 181.733 164.266 181.733C168.972 181.733 172.874 181.618 175.612 181.503L175.593 182.283C172.785 184.856 173.054 188.624 174.097 191.621C174.097 191.621 160.128 195.099 136.484 190.464H136.485Z" fill="#000072"/>
</g>
<g opacity="0.25">
<path d="M106.437 190.464C106.437 190.464 91.1714 190.251 88.0238 189.458C88.6593 188.159 89.2287 186.897 89.7363 185.686V185.69C89.7363 185.69 102.239 188.218 106.437 190.464Z" fill="#000072"/>
</g>
<g opacity="0.25">
<path d="M82.2523 180.025C82.5485 179.989 87.597 181.1 89.5586 182.187C88.8302 184.16 87.9255 186.348 86.8014 188.664C84.7389 186.444 81.9251 180.065 82.2523 180.025Z" fill="#000072"/>
</g>
<g opacity="0.25">
<path d="M64.5378 205.678C65.4116 205.04 69.1973 207.658 71.1696 209.117C71.1575 209.128 71.1468 209.139 71.1333 209.148C69.9297 210.159 68.8042 211.174 67.7366 212.185C66.6003 210.616 63.4958 206.437 64.5365 205.677L64.5378 205.678Z" fill="#000072"/>
</g>
<g opacity="0.25">
<path d="M87.1312 220.704C87.1312 220.704 72.5132 215.084 68.85 213.138C69.8637 212.177 70.9313 211.215 72.0716 210.258C72.1672 210.177 72.2547 210.094 72.349 210.013C72.349 210.013 72.353 210.017 72.3544 210.017C72.7758 210.357 83.1435 217.286 87.1312 220.702V220.704Z" fill="#000072"/>
</g>
<g opacity="0.25">
<path d="M54.1983 233.788C54.6843 232.622 55.278 231.332 55.9916 229.953C58.2372 232.521 65.6862 240.846 68.2724 245.468C68.9671 246.71 57.1292 238.401 54.1983 233.789V233.788Z" fill="#000072"/>
</g>
<g opacity="0.25">
<path d="M52.1816 223.512C53.124 223.905 54.3101 227.083 55.0169 228.573C54.3531 229.813 53.7863 230.984 53.303 232.075C51.3765 227.817 51.1692 223.091 52.1816 223.512Z" fill="#000072"/>
</g>
<g opacity="0.4">
<path d="M316.74 195.921C317.085 195.084 317.508 194.237 317.926 193.511L331.415 196.258C333.079 197.042 335.211 198.083 335.211 198.083L316.74 195.921Z" fill="white"/>
</g>
<g opacity="0.4">
<path d="M284.21 186.645L316.429 193.206C316.065 193.866 315.606 194.773 315.229 195.745L281.508 191.8C282.615 189.5 283.723 187.502 284.21 186.647V186.645Z" fill="white"/>
</g>
<g opacity="0.4">
<path d="M197.639 210.753C198.092 209.971 198.565 209.143 199.019 208.323L282.367 186.956C281.693 188.177 280.715 190.024 279.785 192.031L198.002 212.873C197.881 212.165 197.758 211.448 197.639 210.753Z" fill="white"/>
</g>
<g opacity="0.4">
<path d="M184.712 184.144C182.951 183.586 176.923 184.724 174.831 188.239C174.684 186.433 175.096 184.556 176.779 183.157C180.857 179.765 186.599 180.24 188.159 180.442C188.484 181.418 189.262 184.206 189.055 187.854L188.94 189.126C188.935 189.171 188.928 189.215 188.923 189.259C188.872 189.159 186.613 184.744 184.712 184.143V184.144Z" fill="white"/>
</g>
<g opacity="0.4">
<path d="M195.079 187.328C193.037 185.745 191.459 185.056 190.482 184.754C190.377 183.474 190.179 182.375 189.978 181.522C192.929 182.271 200.485 184.663 200.079 189.418C199.96 190.818 199.841 191.977 199.727 192.95C198.893 191.448 197.341 189.078 195.081 187.326L195.079 187.328Z" fill="white"/>
</g>
<g opacity="0.4">
<path d="M163.296 224.683C159.918 229.083 159.214 229.715 156.259 228.24C153.304 226.765 145.633 211.949 139.019 207.596C134.308 204.496 130.804 203.358 129.169 202.958C132.21 202.129 138.34 201.415 143.511 206.833C150.878 214.551 157.43 224.963 157.496 225.068C157.632 225.286 157.868 225.409 158.113 225.409C158.205 225.409 158.296 225.392 158.384 225.357C158.817 225.184 159.213 224.68 160.083 223.577C161.919 221.246 165.741 216.397 172.773 211.808C172.848 211.759 172.91 211.698 172.961 211.629C173.551 211.904 174.347 212.231 174.347 212.231C174.347 212.231 166.675 220.283 163.299 224.683H163.296Z" fill="white"/>
</g>
<g opacity="0.4">
<path d="M211.359 309.974C211.359 309.974 212.837 299.02 208.122 285.116C205.462 278.115 202.046 273.238 200.809 271.594C201.271 268.811 201.613 266.023 201.847 263.24C201.947 263.132 202.045 263.026 202.141 262.927C205.388 267.851 215.773 285.277 214.061 304.385C213.923 305.918 213.637 307.352 213.231 308.699C212.727 309.283 212.111 309.72 211.36 309.974H211.359Z" fill="white"/>
</g>
<g opacity="0.4">
<path d="M145.21 306.743C144.248 307.451 146.828 296.492 139.51 278.586C132.192 260.681 117.343 253.097 108.899 251.272C103.556 250.116 103.144 248.878 103.561 248.123C103.816 248.148 104.167 248.164 104.699 248.189C128.978 249.269 139.12 263.628 143.351 275.483C147.376 286.757 148.115 297.361 145.649 306.309C145.512 306.476 145.368 306.626 145.21 306.743Z" fill="white"/>
</g>
<g opacity="0.4">
<path d="M197.334 261.571C196.587 236.105 193.044 218.816 193.044 218.816C194.258 216.64 195.016 215.186 195.162 214.906C195.322 214.646 195.832 213.812 196.497 212.694C196.886 214.95 197.279 217.274 197.666 219.653C197.668 219.664 197.666 219.674 197.667 219.687C197.667 219.692 197.671 219.696 197.672 219.7C198.646 225.701 199.556 232.064 200.145 238.641C200.128 238.735 200.128 238.835 200.152 238.936C200.158 238.957 200.17 238.973 200.176 238.993C201.373 252.615 201.159 267.125 197.197 281.168C196.743 281.86 196.224 282.596 195.652 283.351C196.8 277.56 197.589 270.291 197.333 261.571H197.334Z" fill="white"/>
</g>
<g opacity="0.25">
<path d="M197.2 281.168C196.251 284.531 195.086 287.865 193.675 291.155C194.369 288.952 195.059 286.354 195.654 283.35C196.226 282.595 196.746 281.86 197.2 281.167V281.168Z" fill="#3C0A09"/>
</g>
<g opacity="0.4">
<path d="M197.2 281.168C196.251 284.531 195.086 287.865 193.675 291.155C194.369 288.952 195.059 286.354 195.654 283.35C196.226 282.595 196.746 281.86 197.2 281.167V281.168Z" fill="white"/>
</g>
<g opacity="0.4">
<path d="M77.8257 176.027C79.2137 175.372 85.7823 174.448 92.0331 173.846C91.8769 174.579 91.6063 175.726 91.1957 177.176C89.0672 177.408 80.4927 178.337 78.4894 178.435C78.1488 177.349 77.928 176.503 77.8257 176.027Z" fill="white"/>
</g>
<g opacity="0.4">
<path d="M92.1044 179.208C92.6443 177.478 93.0199 176.035 93.2636 174.997C101.511 180.119 113.854 188.875 113.897 191.943C113.9 192.125 113.852 192.277 113.615 192.431C113.428 192.553 113.201 192.662 112.95 192.764C112.144 192.056 107.117 187.685 101.957 184.179C97.8113 181.362 93.8519 179.885 92.1044 179.208Z" fill="white"/>
</g>
<g opacity="0.4">
<path d="M62.6315 201.957C65.7468 200.018 73.7976 201.507 77.784 202.524C76.9668 203.48 76.0971 204.423 75.1924 205.354C70.957 203.764 62.4686 202.243 62.2922 202.212C62.3986 202.125 62.505 202.036 62.6315 201.958V201.957Z" fill="white"/>
</g>
<g opacity="0.4">
<path d="M76.5696 206.014C77.4608 205.08 78.3211 204.137 79.1289 203.181C86.1605 210.18 96.3991 221.779 95.4755 224.775C95.4392 224.893 95.3544 225.169 94.7418 225.282C94.5075 225.325 94.2504 225.349 93.9811 225.362C91.6588 222.111 80.7121 208.719 76.5696 206.014Z" fill="white"/>
</g>
<g opacity="0.4">
<path d="M60.5743 227.866C59.8891 227.114 59.1406 226.426 58.3732 225.791C59.0813 224.665 59.8608 223.503 60.7292 222.313C67.3287 231.209 76.4296 244.93 75.9207 248.389C75.8951 248.565 75.844 248.682 75.7686 248.738C75.5747 248.882 75.3526 249.004 75.1062 249.108L73.9955 249.321C73.9955 249.321 64.8394 232.548 60.5743 227.866Z" fill="white"/>
</g>
<g opacity="0.4">
<path d="M59.5377 221.421C58.672 222.599 57.8993 223.746 57.1898 224.863C54.1377 222.616 51.0184 221.266 49.9709 220.847C51.7238 219.203 56.8424 220.486 59.5363 221.421H59.5377Z" fill="white"/>
</g>
<g opacity="0.4">
<path d="M35.2574 230.171C34.7121 229.998 31.1943 230.973 29.1291 231.475C31.6588 228.469 34.3985 225.642 35.7071 225.396C36.9066 225.188 40.2077 230.983 42.9582 238.081C41.9148 237.884 40.7947 237.673 39.6221 237.452C39.6221 237.452 36.0315 230.417 35.2574 230.171Z" fill="white"/>
</g>
<g opacity="0.4">
<path d="M8.96169 228.03C7.51174 227.599 5.06149 228.107 3.50787 228.52C5.38595 226.755 7.99909 224.932 10.4857 225.381C14.0008 226.019 15.7268 230.953 16.3272 233.147C15.4037 232.98 14.4815 232.814 13.562 232.649C13.0302 231.707 10.9178 228.612 8.96304 228.029L8.96169 228.03Z" fill="white"/>
</g>
<path d="M71.521 327.569C70.2057 327.013 39.1185 313.79 21.6087 298.949C-10.884 271.059 -22.769 235.341 -20.79 228.584C-20.2595 226.774 -18.9388 226.398 -18.3963 226.32C-14.5378 225.768 35.2291 235.167 49.7125 237.933C51.0453 232.972 55.6806 220.3 70.2299 208.075C75.7053 203.474 79.7886 198.182 82.8083 193.116C77.4582 186.476 75.1116 177.347 74.9352 176.113C74.845 175.481 75.0187 174.849 75.4253 174.336C75.9745 173.643 76.9964 172.351 92.7412 170.913C93.3982 170.857 94.0458 171.1 94.4955 171.581C94.9451 172.062 95.1471 172.723 95.0434 173.373C94.8953 174.29 91.2038 196.021 72.9804 211.334C56.0535 225.556 53.4713 240.593 53.4484 240.738C53.3596 241.309 53.0419 241.82 52.5693 242.153C52.0954 242.486 51.5058 242.611 50.9376 242.504C27.6468 238.042 -9.57269 231.202 -16.778 230.577C-16.7753 233.4 -14.8649 241.86 -8.78645 253.773C-3.20743 264.705 7.07687 280.857 24.3848 295.713C41.383 310.12 72.8727 323.515 73.1891 323.649C74.2742 324.109 74.7817 325.358 74.3213 326.441C73.9767 327.252 73.1864 327.74 72.3557 327.74C72.077 327.74 71.7957 327.685 71.5237 327.571L71.521 327.569ZM79.5193 176.98C80.245 179.523 82.0544 184.701 85.0593 189.014C87.9081 183.374 89.4549 178.377 90.2102 175.442C85.9398 175.896 81.6249 176.489 79.5193 176.98Z" fill="#000072"/>
<path d="M158.113 226.813C158.378 226.813 158.646 226.763 158.905 226.66C159.688 226.347 160.158 225.751 161.187 224.445C163.114 221.999 166.702 217.446 173.54 212.983C174.429 212.404 174.754 211.261 174.306 210.301C174.18 210.018 171.137 203.03 177.858 196.006C178.543 195.29 178.643 194.198 178.1 193.37C178.062 193.312 174.145 187.175 177.68 184.235C180.766 181.668 185.015 181.596 187.077 181.745C187.589 183.713 188.308 187.994 186.674 192.881C186.302 193.996 186.906 195.202 188.023 195.575C189.141 195.947 190.35 195.344 190.721 194.229C193.473 185.991 190.787 179.269 190.672 178.987C190.398 178.32 189.807 177.838 189.1 177.703C188.761 177.638 180.724 176.163 174.947 180.967C170.453 184.703 171.864 190.661 173.698 194.266C168.209 200.828 168.999 207.322 169.827 210.35C163.854 214.504 160.303 218.707 158.354 221.155C155.944 217.553 151.042 210.587 145.582 204.867C138.804 197.766 129.844 199.258 126.052 201.038C124.986 201.539 124.528 202.807 125.031 203.871C125.531 204.932 126.798 205.389 127.862 204.895C128.198 204.74 136.177 201.187 142.493 207.803C149.757 215.413 156.238 225.71 156.304 225.814C156.703 226.452 157.395 226.814 158.113 226.814V226.813Z" fill="#000072"/>
<path d="M90.8874 318.972C90.7717 318.942 90.6061 318.909 90.3974 318.863C72.8808 315.08 61.5908 300.752 58.6048 278.518C58.4486 277.353 59.2685 276.281 60.4357 276.125C61.5989 275.967 62.6773 276.787 62.8335 277.952C65.6028 298.569 75.4455 311.277 91.2994 314.701C92.0277 314.858 92.3926 314.938 92.7803 315.17C93.7914 315.774 94.1185 317.083 93.5114 318.092C93.1115 318.757 92.4047 319.126 91.6804 319.126C91.4138 319.126 91.1446 319.076 90.8874 318.973V318.972ZM90.5886 318.825C90.5886 318.825 90.5859 318.824 90.5859 318.823C90.5859 318.823 90.5872 318.824 90.5886 318.825Z" fill="#000072"/>
<path d="M91.1903 375.428C91.1163 375.41 91.0436 375.389 90.9722 375.363C90.8766 375.33 81.3799 371.986 78.0599 370.882C72.9912 369.196 68.193 353.715 66.4832 339.723C64.4382 322.996 84.4589 313.919 85.3124 313.542C86.3881 313.066 87.6469 313.549 88.1275 314.622C88.6054 315.695 88.1221 316.954 87.0478 317.432C86.8674 317.513 69.0587 325.616 70.72 339.207C72.7031 355.429 77.5134 365.977 79.4103 366.842C82.6131 367.908 91.1715 370.918 92.2862 371.31C97.744 372.6 103.726 373.916 107.027 374.525C106.593 372.36 106.068 369.677 105.915 368.895C105.763 368.119 106.055 367.322 106.673 366.828C107.291 366.332 108.133 366.22 108.86 366.536L121.825 372.167V365.306C121.825 364.682 122.1 364.09 122.575 363.685C123.05 363.28 123.68 363.104 124.297 363.203C128.247 363.833 132.928 364.27 135.421 364.172C133.433 361.868 128.721 357.771 125.386 354.872C123.41 353.153 121.544 351.531 119.893 350.025C112.822 343.574 111.391 332.331 111.333 331.857C111.265 331.281 111.433 330.702 111.801 330.253C112.168 329.805 112.704 329.525 113.284 329.479C125.408 328.524 134.752 323.499 140.307 314.944C146.815 304.92 147.427 291.074 142.029 275.956C136.084 259.302 123.504 250.432 104.64 249.592C103.296 249.533 102.794 249.51 102.222 249.167C101.211 248.562 100.884 247.254 101.491 246.245C101.996 245.407 102.985 245.04 103.89 245.288C104.084 245.304 104.478 245.322 104.831 245.338C130.697 246.489 141.524 261.847 146.052 274.527C151.905 290.922 151.138 306.098 143.891 317.26C138.047 326.262 128.186 331.97 115.963 333.488C116.678 336.755 118.533 343.012 122.776 346.883C124.388 348.354 126.237 349.96 128.193 351.662C138.267 360.422 140.936 363.151 140.517 365.656C140.054 368.43 136.485 368.712 130.879 368.272C129.138 368.135 127.422 367.935 126.097 367.761V375.418C126.097 376.136 125.733 376.806 125.133 377.2C124.531 377.592 123.77 377.658 123.112 377.37L110.892 372.063C111.312 374.178 111.696 376.093 111.772 376.399C111.953 377.12 111.733 377.922 111.21 378.452C110.845 378.82 110.565 379.103 109.457 379.103C107.519 379.103 103.052 378.235 91.1957 375.43L91.1903 375.428ZM104.415 245.514C104.415 245.514 104.414 245.513 104.412 245.511C104.412 245.511 104.415 245.513 104.415 245.514Z" fill="#000072"/>
<path d="M97.499 331.601C101.383 332.763 105.508 333.238 109.564 333.532C110.938 333.624 112.281 333.695 113.703 333.714C114.892 333.73 115.869 332.783 115.887 331.597C115.903 330.41 114.954 329.435 113.765 329.418C108.428 330.526 103.023 331.765 97.499 331.599V331.601Z" fill="#000072"/>
<path d="M91.5511 375.482C90.3744 375.409 89.4792 374.399 89.5519 373.226C89.7309 370.318 90.3569 360.684 90.8793 358.832C91.1513 357.869 91.9927 357.184 93.0226 357.086C93.8223 357.009 95.1618 356.883 102.502 361.809C104.104 362.885 105.453 363.821 106.542 364.615C106.658 363.753 106.774 362.851 106.872 362.095C107.402 357.979 107.98 355.713 108.606 355.296C109.884 354.447 110.009 354.368 121.11 361.089L120.07 354.694C119.959 354.013 120.185 353.323 120.677 352.838C121.168 352.354 121.864 352.138 122.545 352.256L129.875 353.543C131.035 353.747 131.811 354.85 131.607 356.01C131.403 357.168 130.292 357.944 129.137 357.737L124.764 356.97L126.065 364.967C126.198 365.788 125.841 366.61 125.15 367.075C124.46 367.538 123.56 367.56 122.85 367.129C118.659 364.584 114.1 361.869 111.408 360.323C111.305 361.091 111.197 361.918 111.105 362.64C110.911 364.144 110.711 365.686 110.541 366.855C110.223 369.023 110.03 370.332 108.388 370.609C107.634 370.738 106.864 370.436 106.379 369.865C105.184 368.773 98.1425 363.821 94.7082 361.99C94.4268 364.62 94.074 369.265 93.8129 373.491C93.7429 374.62 92.8032 375.49 91.6844 375.49C91.64 375.49 91.5955 375.49 91.5511 375.486V375.482ZM106.102 369.444C106.102 369.444 106.102 369.444 106.102 369.443C106.102 369.443 106.102 369.443 106.102 369.444Z" fill="#000072"/>
<path d="M120.426 332.931C128.425 332.931 172.517 331.633 190.314 303.645C209.817 272.972 203.553 236.72 198.98 210.252C198.779 209.093 197.68 208.312 196.513 208.516C195.353 208.717 194.573 209.817 194.774 210.976C199.23 236.763 205.333 272.079 186.711 301.366C168.817 329.504 119.838 328.672 119.344 328.664C118.179 328.637 117.189 329.565 117.16 330.741C117.132 331.916 118.062 332.892 119.24 332.921C119.394 332.925 119.8 332.933 120.426 332.933V332.931Z" fill="#000072"/>
<path d="M201.861 363.402C200.691 363.26 199.859 362.198 200.001 361.031C200.144 359.864 201.213 359.031 202.378 359.176C205.454 359.551 209.038 359.823 211.321 359.834C209.357 357.255 205.226 352.742 201.439 348.921C200.318 348.414 196.735 346.825 194.424 346.081C191.314 345.08 181.985 335.189 178.119 330.981C177.563 330.377 177.405 329.509 177.712 328.747C178.019 327.987 178.737 327.47 179.557 327.417C179.869 327.397 210.781 325.189 212.658 304.262C214.622 282.338 200.201 262.569 200.054 262.372C199.354 261.427 199.553 260.095 200.5 259.395C201.447 258.695 202.783 258.895 203.484 259.838C204.12 260.694 219.02 281.074 216.908 304.641C215.153 324.22 193.551 329.7 184.127 331.164C189.141 336.433 194.381 341.49 195.734 342.028C198.729 342.992 203.374 345.12 203.57 345.209C203.802 345.315 204.013 345.463 204.192 345.643C216.988 358.5 216.757 360.644 216.658 361.559C216.578 362.3 216.18 362.952 215.566 363.348C214.807 363.839 213.237 364.083 210.874 364.083C208.511 364.083 205.59 363.856 201.859 363.402H201.861Z" fill="#000072"/>
<path d="M177.493 366.683C151.307 365.465 150.33 363.41 149.617 361.911C148.661 359.901 148.208 356.799 147.686 353.209C147.143 349.481 146.53 345.257 145.282 342.491C142.903 337.217 137.39 330.66 137.333 330.595C136.574 329.696 136.688 328.352 137.589 327.595C138.489 326.837 139.834 326.95 140.595 327.85C140.837 328.136 146.547 334.923 149.172 340.745C150.665 344.055 151.325 348.593 151.908 352.597C152.31 355.369 152.726 358.227 153.331 359.763C157.681 362.055 190.655 363.1 200.73 363.011C198.852 360.294 195.222 355.964 194.251 355.153C194.264 355.163 194.457 355.32 194.786 355.433C193.648 354.955 191.09 352.396 178.138 338.678C177.329 337.822 177.369 336.474 178.227 335.668C179.085 334.861 180.436 334.903 181.242 335.758C187.743 342.643 195.124 350.328 196.508 351.55C197.286 352.016 198.556 353.308 201.442 356.888C205.87 362.378 206.01 363.792 206.069 364.395C206.201 365.718 205.384 366.86 204.128 367.111C203.688 367.198 201.987 367.241 199.499 367.241C194.212 367.241 185.366 367.048 177.49 366.681L177.493 366.683Z" fill="#000072"/>
<path d="M197.009 357.082C198.091 357.082 199.019 356.263 199.129 355.166C199.627 350.249 202.965 349.817 203.343 349.783C204.505 349.682 205.387 348.668 205.303 347.507C205.22 346.348 204.256 345.459 203.071 345.534C200.547 345.676 195.587 347.784 194.884 354.737C194.766 355.907 195.619 356.951 196.792 357.069C196.865 357.076 196.937 357.08 197.009 357.08V357.082Z" fill="#000072"/>
<path d="M186.635 367.025C186.81 367.025 186.989 367.004 187.167 366.958C188.309 366.666 188.997 365.506 188.705 364.367C188.178 362.321 188.357 360.617 189.251 359.16C191.102 356.141 195.42 355.14 195.463 355.131C196.61 354.873 197.336 353.738 197.08 352.592C196.825 351.446 195.695 350.722 194.546 350.972C194.299 351.026 188.449 352.345 185.63 356.908C184.108 359.371 183.752 362.236 184.572 365.424C184.819 366.386 185.686 367.025 186.637 367.025H186.635Z" fill="#000072"/>
<path d="M179.464 327.424L168.011 330.797L179.921 331.657C183.324 331.687 182.781 326.67 179.464 327.424Z" fill="#000072"/>
<path d="M164.559 252.658C170.041 252.658 176.864 246.531 185.4 233.952C191.261 225.311 195.917 216.495 196.374 215.62C198.267 212.532 202.602 205.286 202.931 203.143C203.228 201.194 202.413 198.723 201.921 197.466C202.166 196.363 202.553 194.088 202.93 189.661C203.635 181.383 190.817 178.726 189.354 178.451C188.202 178.23 187.08 178.992 186.86 180.147C186.642 181.303 187.403 182.416 188.561 182.634C191.29 183.154 199.001 185.493 198.677 189.298C198.166 195.275 197.675 196.879 197.655 196.945C197.466 197.463 197.503 197.987 197.729 198.492C198.207 199.568 198.85 201.59 198.712 202.501C198.46 203.616 195.393 209.066 192.696 213.459C192.669 213.502 192.644 213.546 192.621 213.592C185.593 227.125 171.84 248.401 164.59 248.401C164.529 248.401 164.47 248.4 164.41 248.397C159.529 248.154 154.19 242.594 149.024 237.217C143.473 231.44 137.734 225.466 131.365 224.632C130.203 224.482 129.125 225.299 128.973 226.465C128.819 227.631 129.642 228.701 130.81 228.854C135.691 229.493 140.903 234.918 145.942 240.163C151.684 246.14 157.622 252.321 164.195 252.649C164.315 252.654 164.436 252.658 164.558 252.658H164.559Z" fill="#000072"/>
<path d="M176.316 184.728C177.47 184.728 178.42 183.809 178.449 182.651L178.648 174.47C183.411 177.191 183.894 179.671 183.896 179.697C183.968 180.87 184.982 181.761 186.158 181.691C187.334 181.618 188.228 180.608 188.155 179.434C188.118 178.835 187.502 173.452 177.44 169.128C176.791 168.847 176.041 168.908 175.445 169.29C174.849 169.672 174.48 170.325 174.464 171.031L174.182 182.547C174.154 183.722 175.086 184.699 176.264 184.727C176.281 184.727 176.299 184.727 176.317 184.727L176.316 184.728Z" fill="#000072"/>
<path d="M164.278 183.135C173.735 183.135 179.959 182.677 180.094 182.668C181.269 182.578 182.148 181.555 182.058 180.383C181.969 179.21 180.939 178.334 179.768 178.423C179.483 178.444 150.932 180.537 123.018 175.589C121.861 175.384 120.749 176.155 120.543 177.313C120.337 178.471 121.11 179.577 122.271 179.782C137.636 182.505 153.18 183.136 164.276 183.136L164.278 183.135Z" fill="#000072"/>
<path d="M204.249 256.405C203.697 255.599 203.749 254.516 204.398 253.785C205.046 253.056 206.093 252.849 206.962 253.297C207.012 253.322 208.207 253.875 209.471 253.291C210.922 252.619 212.113 250.664 212.915 247.638C213.194 246.587 214.222 245.916 215.295 246.076C220.767 246.898 221.763 247.196 222.191 247.424L222.339 246.456C222.429 245.865 222.766 245.338 223.265 245.006C223.765 244.674 224.381 244.568 224.964 244.711C225.019 244.725 230.612 246.08 234.452 244.763C235.08 244.547 235.776 244.637 236.331 245.006C236.886 245.377 237.234 245.984 237.275 246.648C237.319 247.389 238.248 264.846 227.223 266.847C225.909 267.084 224.629 267.196 223.386 267.196C214.809 267.196 208.006 261.891 204.25 256.403L204.249 256.405ZM226.224 249.275L225.29 255.384C225.138 256.375 224.314 257.126 223.312 257.188C222.321 257.256 221.399 256.605 221.127 255.64C220.674 254.034 220.087 252.134 219.722 251.132C218.964 250.982 217.745 250.772 216.473 250.569C215.274 253.942 213.49 256.171 211.155 257.204C210.984 257.279 210.813 257.348 210.645 257.407C214.454 261.104 219.978 263.833 226.459 262.658C231.778 261.693 232.82 253.633 232.998 249.43C230.499 249.75 227.975 249.531 226.224 249.275Z" fill="#000072"/>
<path d="M233.197 247.649C231.649 244.202 229.983 240.534 228.648 237.633C228.152 239.918 227.47 243.021 226.531 247.239C226.276 248.386 225.137 249.113 223.986 248.855C222.836 248.6 222.11 247.463 222.365 246.315C223.579 240.863 225.542 231.922 225.699 230.874C225.776 229.943 226.457 229.151 227.385 228.953C229.115 228.585 229.59 229.587 230.997 232.567C231.696 234.047 232.607 236.025 233.512 238.005C235.316 241.953 237.092 245.906 237.092 245.906C237.574 246.98 237.092 248.24 236.017 248.721C235.735 248.847 235.437 248.907 235.146 248.907C234.332 248.907 233.552 248.439 233.198 247.649H233.197ZM225.691 231.049C225.691 230.998 225.693 230.948 225.697 230.898C225.691 230.967 225.691 231.018 225.691 231.049Z" fill="#000072"/>
<path d="M206.007 257.333C206.075 257.333 206.143 257.33 206.211 257.324C207.384 257.212 208.245 256.174 208.133 255.002L207.095 244.071L213.563 249.777C214.446 250.556 215.793 250.472 216.574 249.591C217.355 248.71 217.272 247.365 216.388 246.586L205.873 237.31C205.217 236.731 204.273 236.612 203.491 237.008C202.71 237.404 202.252 238.237 202.335 239.106L203.883 255.404C203.988 256.507 204.917 257.332 206.005 257.332L206.007 257.333Z" fill="#000072"/>
<path d="M64.4207 217.419C64.2417 217.325 64.0761 217.204 63.9307 217.063C63.6601 216.8 57.3123 210.546 58.6182 203.154C58.8875 201.636 59.7518 200.384 61.1183 199.534C66.1386 196.409 77.4689 199.438 79.6876 200.078C80.0296 200.176 80.3419 200.358 80.595 200.608C80.7862 200.796 85.3326 205.283 89.7835 210.423C98.3014 220.259 98.8224 223.621 98.2099 225.612C97.8087 226.914 96.733 227.815 95.2602 228.087C94.797 228.171 94.2854 228.212 93.7321 228.212C85.1603 228.212 66.6313 218.582 64.4221 217.418L64.4207 217.419ZM77.9886 204.026C73.1904 202.72 65.8047 201.635 63.376 203.149C62.9829 203.394 62.8698 203.624 62.8213 203.894C62.0135 208.457 65.8007 212.834 66.7148 213.811C74.88 218.087 88.9555 224.328 94.0673 223.946C93.405 221.072 86.4123 212.376 77.9886 204.024V204.026Z" fill="#000072"/>
<path d="M50.6832 238.126C50.5513 237.972 50.4422 237.8 50.3587 237.616C49.4083 235.517 44.7811 224.803 46.9661 220.174C49.5671 214.662 59.5391 218.318 61.5114 219.105C61.8749 219.25 62.1913 219.493 62.4269 219.806C66.4657 225.193 79.5759 243.206 78.7506 248.803C78.5756 249.993 77.9563 250.671 77.4676 251.031C76.2964 251.895 74.7683 252.349 72.9616 252.349C67.396 252.349 59.1917 248.038 50.6819 238.124L50.6832 238.126ZM59.3762 222.847C55.511 221.418 51.3052 220.974 50.8273 221.989C49.9454 223.858 51.8356 230.435 54.1243 235.588C63.6789 246.621 71.8576 248.961 74.5314 247.833C74.25 244.638 66.7337 232.727 59.3762 222.849V222.847Z" fill="#000072"/>
<path d="M27.2295 267.432C24.0536 262.678 23.0735 240.047 22.9093 235.557C22.8917 235.077 23.0371 234.606 23.3212 234.219C25.7351 230.937 31.7221 223.236 35.1793 222.59C36.3573 222.371 39.9519 221.695 46.1018 238.299C46.2808 238.782 46.2781 239.313 46.095 239.794C46.0681 239.863 43.4429 246.732 40.3706 253.566C34.2208 267.242 31.8998 268.59 30.0486 268.798C29.9369 268.811 29.8278 268.817 29.7188 268.817C28.7333 268.817 27.8192 268.315 27.2295 267.434V267.432ZM35.6411 226.933C34.109 227.833 30.4485 231.821 27.2026 236.145C27.5809 245.615 28.6929 258.966 30.1967 263.713C32.8395 260.311 37.9231 249.142 41.8192 239.028C39.6948 233.46 36.9914 228.181 35.6411 226.931V226.933Z" fill="#000072"/>
<path d="M6.66624 249.329C2.13463 247.607 -0.780083 236.285 -1.82211 231.497C-1.95135 230.906 -1.82211 230.288 -1.46669 229.798C-0.844705 228.94 4.78278 221.446 10.9986 222.572C17.3221 223.721 19.2015 232.651 19.3954 233.666C19.4721 234.065 19.4318 234.478 19.2796 234.856C16.9855 240.566 12.6303 249.574 7.97349 249.574C7.53998 249.574 7.10379 249.496 6.66624 249.329ZM10.2339 226.762C7.57499 226.277 4.17022 229.631 2.56679 231.561C4.10829 238.158 6.60835 244.425 8.06369 245.288C9.52172 244.739 12.7407 239.489 15.0725 233.875C14.5299 231.691 12.9023 227.246 10.2353 226.761L10.2339 226.762Z" fill="#000072"/>
<path d="M104.395 196.545C109.034 196.545 113.194 196.116 115.18 194.821C116.199 194.156 116.774 193.092 116.756 191.903C116.729 189.911 115.31 186.872 105.003 179.435C99.5871 175.528 94.2733 172.263 94.0498 172.126C93.0455 171.511 91.7315 171.823 91.1149 172.826C90.4983 173.828 90.8106 175.139 91.8163 175.755C101.92 181.952 110.86 188.869 112.303 191.528C108.438 193.044 94.7445 192.055 85.7203 190.79C84.5517 190.623 83.4747 191.438 83.3105 192.602C83.1462 193.766 83.9594 194.842 85.1266 195.006C87.6805 195.364 96.6953 196.546 104.395 196.546V196.545Z" fill="#000072"/>
<path d="M236.83 251.45C237.027 251.45 237.225 251.423 237.422 251.367L297.096 234.219C297.377 234.138 297.64 234 297.866 233.813L340.37 198.705C341.002 198.182 341.278 197.344 341.079 196.548C340.88 195.753 340.24 195.143 339.435 194.979L284.264 183.745C283.948 183.68 283.619 183.688 283.307 183.769L197.999 205.639C196.858 205.932 196.171 207.092 196.463 208.23C196.757 209.368 197.92 210.055 199.062 209.763L283.894 188.015L334.214 198.263L295.487 230.251L236.241 247.276C235.109 247.602 234.454 248.781 234.781 249.912C235.051 250.846 235.904 251.452 236.83 251.452V251.45Z" fill="#000072"/>
<path d="M296.506 234.302C297.333 234.302 298.119 233.82 298.468 233.015C298.933 231.935 298.434 230.683 297.352 230.217C291.79 227.826 285.635 223.741 285.693 221.702C285.792 218.204 289.613 212.028 291.078 209.943C291.462 209.398 291.565 208.703 291.361 208.068C291.156 207.434 290.665 206.93 290.035 206.711C285.103 204.989 279.783 201.707 280.042 199.894C280.571 196.202 284.293 189.269 285.681 186.909C286.277 185.894 285.938 184.59 284.921 183.995C283.908 183.4 282.598 183.738 282.001 184.753C281.779 185.129 276.572 194.022 275.818 199.292C275.106 204.266 282.005 207.993 286.107 209.75C284.303 212.664 281.537 217.735 281.426 221.581C281.258 227.482 292.281 232.678 295.665 234.13C295.939 234.249 296.225 234.304 296.506 234.304V234.302Z" fill="#000072"/>
<path d="M319.868 215.005C320.625 215.005 321.357 214.603 321.745 213.894C322.308 212.861 321.925 211.569 320.891 211.006C318.934 209.943 320.661 205.157 321.749 203.136C322.095 202.494 322.088 201.721 321.73 201.085C321.372 200.45 320.715 200.04 319.987 200C319.525 199.967 318.164 199.701 317.38 198.893C317.297 198.081 318.235 195.685 319.384 193.809C319.998 192.807 319.683 191.496 318.678 190.882C317.674 190.267 316.361 190.581 315.746 191.584C314.462 193.671 311.722 198.82 314.02 201.53C314.864 202.527 315.907 203.159 316.874 203.56C315.399 207.424 314.771 212.529 318.852 214.746C319.176 214.922 319.525 215.005 319.87 215.005H319.868Z" fill="#000072"/>
<path d="M200.86 240.9C201.021 240.9 201.183 240.882 201.345 240.845L284.372 221.585C285.52 221.319 286.234 220.174 285.967 219.028C285.699 217.882 284.551 217.17 283.405 217.436L200.378 236.696C199.23 236.962 198.516 238.107 198.783 239.253C199.012 240.236 199.89 240.9 200.859 240.9H200.86Z" fill="#000072"/>
<path d="M198.372 221.64C198.543 221.64 198.718 221.62 198.893 221.575L278.45 201.657C279.593 201.371 280.287 200.215 279.999 199.074C279.712 197.934 278.555 197.24 277.41 197.527L197.854 217.445C196.711 217.731 196.016 218.887 196.305 220.028C196.547 220.994 197.417 221.638 198.372 221.638V221.64Z" fill="#000072"/>
<g opacity="0.25">
<path d="M178.655 29.0114C178.655 29.0114 185.81 48.5076 180.583 65.8826C175.892 81.4723 156.332 90.3345 136.065 89.8656C115.796 89.3981 110.888 78.396 105.382 67.3025C100.828 58.1274 97.3038 42.1884 97.3038 42.1884L72.3544 55.039C72.3544 55.039 73.4193 50.5911 73.7114 50.1613C74.0036 49.7314 100.484 31.6014 100.484 31.6014C100.484 31.6014 101.629 37.8117 101.722 38.0925C101.817 38.3733 110.917 72.9057 122.833 79.6534C134.749 86.4024 160.33 78.8756 170.2 68.1274C180.068 57.3791 173.69 38.4189 171.802 31.5544C171.802 31.5544 168.903 21.06 170.17 19.3714C171.437 17.6828 172.563 17.5176 172.563 17.5176L178.38 18.6648C178.38 18.6648 179.506 20.1976 179.741 21.1406C179.977 22.0837 181.245 27.5552 181.245 27.5552L178.656 29.01L178.655 29.0114Z" fill="#000072"/>
</g>
<path d="M226.459 29.9072L235.574 32.7793C233.757 24.7043 228.75 7.01497 223.342 4.94082C216.446 2.29305 182.154 3.86613 180.129 4.8441C179.19 5.54667 178.301 8.06548 177.96 9.48675C177.868 9.86692 177.496 10.1087 177.11 10.0308C177.028 10.0147 168.883 8.42953 164.294 11.0719C164.047 11.2143 163.74 11.1995 163.508 11.0343L158.447 7.42738C155.626 7.4744 128.017 8.16623 105.711 17.0848C104.31 17.958 102.601 19.0421 100.702 20.2726C100.718 20.321 100.742 20.3639 100.748 20.4163L101.974 31.4977C102.18 32.6006 109.867 73.0224 123.132 78.9923C137.01 85.2389 159.415 79.23 171.08 66.1349C178.983 57.2634 173.925 39.1334 170.903 28.3019C169.035 21.6106 168.26 18.6082 169.458 17.5724C170.458 16.7087 171.867 16.4118 173.329 16.4118C176.425 16.4118 179.761 17.7417 179.966 17.8236C180.148 17.8975 180.292 18.0399 180.366 18.2213L183.573 26.045L189.597 26.4964C188.641 22.9513 186.49 13.7291 189.44 11.89C192.815 9.78363 216.658 11.037 219.426 12.4166C222.094 13.7492 225.559 26.4507 226.46 29.9085L226.459 29.9072ZM153.634 69.136C149.071 71.4358 143.251 73.2494 137.775 73.2494C133.654 73.2494 129.725 72.2217 126.676 69.6008C114.402 59.0501 110.811 27.4045 110.664 26.0625C110.633 25.7817 110.769 25.509 111.01 25.3626C126.751 15.8529 154.229 13.678 158.569 17.1802C162.606 20.4392 167.649 48.5074 168.212 51.6978C168.216 51.7207 168.218 51.7449 168.22 51.769C168.726 58.4335 161.258 65.294 153.633 69.136H153.634Z" fill="#FFCC29"/>
<g opacity="0.3">
<path d="M153.514 68.4052C145.918 72.2325 134.72 74.7043 128.159 69.0648C117.098 59.5552 113.194 30.9161 112.7 26.929C128.189 17.8183 154.774 16.1136 158.191 18.8728C160.924 21.08 165.138 40.1638 167.31 52.477C167.676 57.6637 162.138 64.0595 153.515 68.4052H153.514Z" fill="white"/>
</g>
<path d="M73.7101 50.1611C73.6549 50.3949 72.3773 55.908 72.3773 60.0147C72.3773 62.966 74.5434 68.9212 75.9772 72.8612C76.4713 74.218 76.9398 75.5077 77.0543 75.9711C76.369 76.9182 70.8761 79.085 69.5931 78.9319C69.0573 78.361 67.7864 76.7785 66.5559 75.2444C65.8895 74.4128 65.2231 73.584 64.6617 72.8989C63.31 71.2505 64.3089 56.0491 66.3068 47.8774C67.5427 42.8183 86.9064 29.2732 99.3663 21.1418L100.485 31.2547L74.0036 49.7326C73.8568 49.8347 73.7532 49.9878 73.7128 50.1625L73.7101 50.1611Z" fill="#FFCC29"/>
<g opacity="0.25">
<path d="M189.966 8.85148C192.077 8.1489 217.692 5.69189 222.478 10.5361C226.577 14.687 229.59 27.5403 230.37 31.1392L226.459 29.9073C225.559 26.4495 222.094 13.7467 219.424 12.4154C216.656 11.0358 192.814 9.78242 189.438 11.8888C188.756 12.3147 188.349 13.1368 188.135 14.1913C188.13 14.2155 188.127 14.2343 188.127 14.2343C188.127 14.2343 187.855 9.5554 189.966 8.85282V8.85148Z" fill="#3C0A09"/>
</g>
<g opacity="0.25">
<path d="M164.563 61.9358C164.563 61.9358 165.071 60.8974 165.664 59.4237C167.41 56.968 168.416 54.3552 168.22 51.7706C168.218 51.7464 168.214 51.7236 168.212 51.6994C167.649 48.5089 162.606 20.4421 158.569 17.1817C154.229 13.6782 126.75 15.8545 111.01 25.3641C110.815 25.4824 110.695 25.6825 110.67 25.9028C110.339 25.9472 109.962 25.9727 109.85 25.88C109.639 25.704 109.357 25.3534 109.357 25.2486C109.357 25.1438 109.462 22.089 118.54 18.1919C118.54 18.1919 142.081 10.0727 158.863 13.3464C158.863 13.3464 162.945 15.9606 164.07 19.8496C165.196 23.7387 168.996 38.9751 170.475 47.1212C171.953 55.266 164.563 61.9371 164.563 61.9371V61.9358Z" fill="#3C0A09"/>
</g>
<g opacity="0.25">
<path d="M68.4138 64.2759C69.7278 62.1225 68.6952 52.8533 70.2905 48.2657C71.7391 44.1013 95.5348 28.8246 99.9075 26.0452L100.484 31.252L74.0022 49.73C73.8555 49.8321 73.7518 49.9852 73.7114 50.1598C73.6562 50.3936 72.3786 55.9067 72.3786 60.0134C72.3786 62.9648 74.5448 68.9199 75.9786 72.86C76.4727 74.2167 76.9412 75.5064 77.0556 75.9698C76.3704 76.9169 70.8775 79.0837 69.5945 78.9306C69.0587 78.3597 67.7878 76.7772 66.5573 75.2431C65.8908 74.4115 65.2244 73.5827 64.663 72.8976C64.2928 72.4462 64.0989 70.9712 64.0545 68.9064C65.1517 67.9553 67.4364 65.8812 68.4165 64.2745L68.4138 64.2759Z" fill="#000072"/>
</g>
<g opacity="0.25">
<path d="M115.139 63.2456C119.269 72.6075 123.115 76.5395 135.031 78.2254C146.947 79.91 165.056 70.8289 165.056 70.8289L167.153 69.9409C154.889 80.3318 135.582 84.5956 123.132 78.9911C109.866 73.0212 102.18 32.5995 101.974 31.4966L100.828 21.1406L104.819 21.7707C105.476 34.1282 111.012 53.8837 115.139 63.2456Z" fill="#000072"/>
</g>
<g opacity="0.4">
<path d="M222.149 7.60349C217.504 5.24589 182.179 7.07151 182.132 7.39929C182.085 7.72707 180.302 12.9232 179.411 13.0629C178.52 13.204 173.36 12.5833 170.357 12.5659C167.355 12.5484 164.212 12.8641 164.306 12.5659C164.361 12.3899 164.889 11.3756 165.419 10.5334C170.098 8.66608 177.036 10.0148 177.112 10.0296C177.497 10.1089 177.87 9.86705 177.961 9.48553C178.302 8.06291 179.192 5.54411 180.13 4.84288C182.155 3.86625 216.448 2.29318 223.343 4.9396C228.094 6.76254 232.534 20.6341 234.776 29.4533C234.448 30.3963 234.019 31.5543 234.019 31.5543C234.019 31.5543 226.795 9.96108 222.151 7.60349H222.149Z" fill="white"/>
</g>
<path d="M121.956 81.5944C109.321 75.908 101.996 45.7522 99.7931 35.2176L76.3246 51.5932C75.98 53.2307 75.2382 57.1009 75.2382 60.0147C75.2382 62.465 77.469 68.5974 78.6671 71.8913C79.4857 74.1428 79.8223 75.0805 79.9071 75.6769C80.2154 77.8344 77.7799 79.0474 76.61 79.6291C74.5287 80.6662 69.4895 82.876 67.6518 81.0369C67.1066 80.4915 66.0268 79.1562 64.3144 77.0203C63.656 76.1995 62.999 75.3814 62.4444 74.7043C59.6387 71.2828 62.1724 52.7256 63.5241 47.199C65.5058 39.0892 97.7979 18.6432 104.251 14.6265C104.357 14.5607 104.469 14.5043 104.585 14.4573C128.518 4.86703 157.44 4.57552 158.66 4.56746H158.673C159.117 4.56746 159.551 4.70583 159.913 4.96375L164.132 7.97154C168.035 6.34204 173.025 6.6134 175.728 6.93581C176.254 5.42184 177.128 3.51695 178.408 2.55914C181.198 0.472897 217.342 -0.420438 224.365 2.27569C232.362 5.34527 237.656 28.7493 238.636 33.4108C238.792 34.151 238.542 34.918 237.98 35.4258C237.419 35.9336 236.627 36.1056 235.906 35.8772L225.209 32.5067C224.507 32.285 223.968 31.7168 223.785 31.0048C222.05 24.241 219.365 16.2749 218.062 14.9396C214.953 13.8367 194.072 13.0118 191.042 14.2679C190.346 15.5548 191.08 21.3823 192.622 26.7034C192.816 27.3737 192.67 28.0964 192.229 28.6378C191.789 29.1792 191.115 29.472 190.413 29.4196L182.906 28.8581C182.1 28.7977 181.397 28.2872 181.091 27.5416L178.068 20.1679C175.915 19.4385 173.065 18.9334 171.731 19.4895C171.803 20.9081 172.82 24.5513 173.653 27.5376C177.038 39.6681 182.152 57.9996 173.213 68.0332C164.185 78.1675 149.05 84.2825 135.734 84.2825C130.746 84.2825 126.011 83.4241 121.952 81.5971L121.956 81.5944ZM180.494 16.5207C181.027 16.7356 181.448 17.1574 181.666 17.6881L184.545 24.7085L187.741 24.9476C186.438 19.5795 185.518 12.6787 188.695 10.6972C192.473 8.34096 216.79 9.53253 220.054 11.1607C222.805 12.5336 225.639 21.2628 227.625 28.803L233.647 30.7012C231.138 20.4191 226.671 7.72302 222.837 6.25204C216.403 3.78294 184.95 5.15048 180.828 6.1177C180.363 6.694 179.679 8.3544 179.329 9.81329C179.064 10.9269 177.965 11.6309 176.836 11.4079C174.701 10.986 168.409 10.3224 164.995 12.2878C164.271 12.7042 163.369 12.6612 162.689 12.1763L158.008 8.84069C153.498 8.94682 127.508 9.91538 106.35 18.3423C90.9224 27.9567 68.819 43.5128 67.6707 48.2106C65.7509 56.0652 64.8731 69.8508 65.8209 72.0996C66.3688 72.7686 67.0069 73.5652 67.6464 74.3618C68.5081 75.4365 69.5272 76.706 70.1667 77.4609C71.478 77.2017 74.1382 76.2076 75.4132 75.4566C75.2072 74.8629 74.9204 74.0743 74.6552 73.3449C72.7125 68.0063 70.9691 62.9687 70.9691 60.0147C70.9691 55.7468 72.283 50.0805 72.3382 49.8414C72.4581 49.3296 72.7623 48.8809 73.1931 48.58L100.027 29.8549C100.621 29.4398 101.388 29.3565 102.06 29.6306C102.732 29.9059 103.218 30.5024 103.349 31.2157C105.435 42.5389 113.159 72.9647 123.709 77.7121C136.85 83.6256 158.926 77.6624 170.026 65.2014C177.42 56.9021 172.49 39.2329 169.544 28.6768C167.471 21.2466 166.613 18.1717 168.535 16.5099C169.849 15.3735 171.604 14.9919 173.373 14.9919C176.478 14.9919 179.624 16.1701 180.492 16.5207H180.494Z" fill="#000072"/>
<path d="M125.756 70.6636C113.068 59.7555 109.414 27.5793 109.264 26.2158C109.174 25.3923 109.571 24.5916 110.281 24.1631C125.857 14.7515 154.26 11.8929 159.455 16.0909C163.687 19.5097 168.287 44.0234 169.597 51.4562C169.609 51.5247 169.618 51.5945 169.624 51.6644C170.216 59.4774 161.722 66.6348 154.268 70.3909C149.538 72.774 143.503 74.6413 137.769 74.6413C133.336 74.6413 129.083 73.5236 125.756 70.6649V70.6636ZM156.771 19.4009C154.051 17.2676 129.086 18.5116 113.68 27.1158C114.509 33.3033 118.481 58.7882 128.543 67.4382C134.574 72.6249 145.136 70.2229 152.344 66.5891C160.302 62.5792 165.639 56.6295 165.375 52.0808C162.848 37.7646 158.845 21.2292 156.771 19.3996V19.4009Z" fill="#000072"/>
<path d="M101.25 33.7304C101.328 33.7304 101.407 33.7264 101.487 33.717C102.658 33.588 103.504 32.5362 103.373 31.3675L102.144 20.2619C102.015 19.0932 100.96 18.2509 99.7891 18.3785C98.6178 18.5075 97.7724 19.5593 97.903 20.728L99.1321 31.8336C99.2519 32.9231 100.177 33.7291 101.25 33.7291V33.7304Z" fill="#000072"/>
<path d="M294.12 43.7223C291.12 38.8244 289.641 32.9445 290.274 26.7932C291.81 11.8631 305.186 1.00205 320.148 2.53483C335.111 4.0676 345.996 17.4139 344.46 32.344C342.923 47.2741 329.548 58.1352 314.585 56.6024C310.424 56.1766 306.579 54.8332 303.228 52.7994L290.624 55.6204L294.122 43.7236L294.12 43.7223Z" fill="white"/>
<g opacity="0.5">
<path d="M319.612 7.73512C305.635 6.30309 293.046 15.6878 290.196 29.0999C290.192 28.1421 290.234 27.1749 290.335 26.201C291.871 11.2708 305.246 0.409768 320.209 1.94254C335.172 3.47532 346.056 16.8216 344.52 31.7517C344.419 32.731 344.264 33.6902 344.065 34.6319C344.013 20.9162 333.595 9.16714 319.612 7.73512Z" fill="white"/>
</g>
<path d="M314.339 58.9802C310.245 58.5611 306.378 57.3373 302.83 55.3384L291.147 57.9525C290.321 58.1352 289.456 57.8719 288.875 57.254C288.295 56.636 288.086 55.7588 288.325 54.9461L291.53 44.0393C288.517 38.7035 287.26 32.6799 287.89 26.5474C288.699 18.6915 292.524 11.62 298.663 6.6348C304.802 1.64959 312.519 -0.651591 320.392 0.155769C328.265 0.961785 335.353 4.77962 340.348 10.9053C345.344 17.0311 347.649 24.7312 346.841 32.5872C345.277 47.7833 332.378 59.1347 317.388 59.1347C316.381 59.1347 315.364 59.0837 314.34 58.9789L314.339 58.9802ZM301.688 10.3452C296.541 14.5244 293.334 20.4526 292.656 27.0378C292.096 32.4784 293.31 37.8169 296.163 42.4757C296.516 43.0506 296.608 43.7478 296.417 44.3953L294.064 52.3991L302.7 50.466C303.305 50.3317 303.939 50.4351 304.469 50.7562C307.635 52.6772 311.119 53.8445 314.826 54.2234C328.456 55.6164 340.674 45.6944 342.073 32.0996C342.75 25.5144 340.818 19.0582 336.63 13.9239C332.441 8.78821 326.5 5.58832 319.901 4.91261C319.036 4.82395 318.175 4.77962 317.317 4.77962C311.629 4.77962 306.158 6.71271 301.685 10.3438L301.688 10.3452Z" fill="#000072"/>
<g opacity="0.3">
<path d="M293.967 43.4617C301.427 49.758 311.703 52.5146 321.909 49.9796C333.227 47.1693 341.566 38.5691 344.566 28.1326C344.637 29.5162 344.605 30.9227 344.46 32.344C342.923 47.2741 329.548 58.1352 314.585 56.6024C310.424 56.1766 306.579 54.8332 303.228 52.7994L290.624 55.6204L294.122 43.7236C294.069 43.6376 294.021 43.549 293.968 43.463L293.967 43.4617Z" fill="#000072"/>
</g>
<path d="M308.658 21.9385C311.015 19.5862 314.836 20.0081 317.193 22.3603L317.559 22.7257L317.926 22.3603C320.283 20.0081 324.104 19.5876 326.461 21.9385C328.818 24.2907 328.818 28.1031 326.461 30.4554L326.095 30.8208L318.685 38.2146C318.063 38.8353 317.056 38.8353 316.435 38.2146L309.025 30.8208L308.659 30.4554C306.302 28.1031 306.302 24.2907 308.659 21.9385H308.658Z" fill="#FF0068"/>
</g>
<defs>
<clipPath id="clip0_0_10244">
<rect width="368" height="386" fill="white" transform="translate(-21)"/>
</clipPath>
</defs>
</svg>
