<svg width="29" height="24" viewBox="0 0 29 24" fill="none" xmlns="http://www.w3.org/2000/svg">
<g clip-path="url(#clip0_0_10332)">
<path d="M28.883 2.87886C27.9641 3.29784 26.9383 3.55567 25.9445 3.71681C26.4147 3.64161 27.1092 2.78217 27.3871 2.42765C27.8145 1.90124 28.1671 1.29963 28.3594 0.644299C28.3808 0.590584 28.4022 0.526125 28.3594 0.493896C28.2953 0.47241 28.2526 0.483153 28.1991 0.504639C27.0879 1.10625 25.9445 1.53597 24.7264 1.84752C24.6302 1.86901 24.5554 1.84752 24.4913 1.78306C24.3952 1.66489 24.299 1.55746 24.1921 1.47151C23.6792 1.03105 23.1236 0.687271 22.5039 0.429438C21.6918 0.0964028 20.7942 -0.043257 19.918 0.0104583C19.0632 0.0641736 18.2297 0.311264 17.4711 0.708757C16.7124 1.10625 16.0285 1.66489 15.4943 2.33096C14.9386 3.01852 14.5219 3.84573 14.3082 4.70518C14.1052 5.54314 14.1266 6.37035 14.2441 7.21905C14.2655 7.35871 14.2441 7.3802 14.1266 7.35871C9.35021 6.64967 5.38595 4.93078 2.16967 1.24591C2.03076 1.08476 1.95596 1.08476 1.83842 1.25665C0.427957 3.37304 1.11182 6.77859 2.8749 8.4545C3.10998 8.68011 3.34505 8.90571 3.61219 9.09909C3.51602 9.12057 2.35132 8.99166 1.30415 8.4545C1.16525 8.36856 1.09045 8.41153 1.07976 8.57268C1.06908 8.79828 1.07976 9.01314 1.1225 9.26023C1.38964 11.4088 2.8749 13.3963 4.89443 14.1698C5.14019 14.2665 5.39664 14.3632 5.66377 14.4062C5.2043 14.5028 4.72346 14.578 3.39848 14.4814C3.2382 14.4491 3.17409 14.5351 3.2382 14.6962C4.23194 17.425 6.37969 18.2307 7.99317 18.6926C8.20688 18.7356 8.42059 18.7356 8.64498 18.7786C8.63429 18.8001 8.62361 18.8001 8.60224 18.8216C8.06797 19.638 6.21941 20.2504 5.3539 20.5512C3.78315 21.0991 2.08418 21.3462 0.427957 21.185C0.160824 21.1421 0.107397 21.1528 0.0325995 21.185C-0.0421978 21.228 0.0325995 21.2925 0.107397 21.3677C0.438642 21.5933 0.780573 21.7866 1.13319 21.98C2.18035 22.5387 3.28094 22.9899 4.42427 23.3014C10.3439 24.9451 17.0116 23.7419 21.4567 19.2943C24.9508 15.8028 26.1689 11.0006 26.1689 6.17698C26.1689 5.9836 26.3933 5.88691 26.5215 5.79023C27.4298 5.10267 28.1671 4.2862 28.8403 3.36229C28.9899 3.15818 28.9899 2.97554 28.9899 2.90034V2.87886C28.9899 2.80365 28.9899 2.82514 28.8723 2.87886H28.883Z" fill="white"/>
</g>
<defs>
<clipPath id="clip0_0_10332">
<rect width="29" height="24" fill="white"/>
</clipPath>
</defs>
</svg>
