<svg width="112" height="30" viewBox="0 0 112 30" fill="none" xmlns="http://www.w3.org/2000/svg">
<path fill-rule="evenodd" clip-rule="evenodd" d="M55.8243 29.958C50.8325 29.958 45.8233 29.9431 40.8316 29.8983C40.8316 29.8685 40.8316 29.8387 40.8316 29.8089C40.8316 28.1985 39.3428 26.5136 37.0133 26.6925C34.7364 26.8714 34.3686 28.2581 34.5262 29.8238C28.974 29.7492 23.4043 29.6448 17.8346 29.5107C13.2982 29.4063 9.04211 27.8854 5.85441 25.4549C2.64919 22.9797 0.442323 19.5652 0.0569964 15.6884C-0.32833 11.7519 1.26552 8.23299 4.0679 5.59379C6.53749 3.26771 10.128 2.11958 14.0689 1.53806C25.6112 -0.161765 42.0226 0.0469858 55.8243 0.0469858C63.0054 0.0469858 70.8695 -0.0126573 78.4009 0.181183C78.576 0.643416 79.084 0.986364 79.6795 0.986364C80.24 0.986364 80.7304 0.688148 80.923 0.255736C86.9657 0.449576 92.7105 0.837256 97.5972 1.55297C101.538 2.13449 105.129 3.26771 107.598 5.6087C110.401 8.2479 111.994 11.7668 111.609 15.6884C111.224 19.5652 109.017 22.9946 105.794 25.4549C102.606 27.8854 98.3503 29.4063 93.814 29.5107C81.1332 29.8238 68.4875 29.9729 55.8418 29.958H55.8243Z" fill="url(#paint0_linear_0_10293)"/>
<path style="mix-blend-mode:multiply" fill-rule="evenodd" clip-rule="evenodd" d="M106.862 12.9894C106.249 18.4766 101.695 24.4707 95.7576 26.1556C86.79 28.6904 62.4269 28.9588 43.8612 28.5712C42.8278 28.5563 41.952 28.1537 41.3565 27.4379C40.3932 26.2749 38.8169 25.4995 36.8202 25.6487C35.3139 25.7679 34.3681 26.26 33.8251 26.9608C33.1946 27.7809 32.1788 28.2133 31.0228 28.1686C29.2538 28.094 27.6774 28.0046 26.3113 27.93C13.8407 27.1845 7.36022 27.0354 1.7905 20.8921C2.80636 22.6218 4.20755 24.1725 5.88897 25.4548C9.07667 27.8853 13.3328 29.4062 17.8691 29.5105C23.4388 29.6447 29.0086 29.7491 34.5608 29.8237C34.3856 28.258 34.771 26.8713 37.0479 26.6924C39.3774 26.5135 40.8661 28.1984 40.8661 29.8088C40.8661 29.8386 40.8661 29.8684 40.8661 29.8982C45.8578 29.943 50.8671 29.9728 55.8588 29.9579C68.5221 29.9579 81.1503 29.8088 93.831 29.5105C98.3673 29.4062 102.623 27.8853 105.811 25.4548C109.034 22.9945 111.241 19.5651 111.626 15.6883C112.011 11.7518 110.418 8.24779 107.615 5.60859C105.146 3.28251 101.555 2.13438 97.6142 1.55286C97.3865 1.52304 97.1588 1.49322 96.9311 1.44849C102.606 3.05885 107.668 5.98136 106.88 12.9894H106.862Z" fill="url(#paint1_radial_0_10293)"/>
<path style="mix-blend-mode:screen" opacity="0.75" fill-rule="evenodd" clip-rule="evenodd" d="M6.51987 9.52486C5.06613 11.7167 4.50566 15.8619 5.504 18.8739C6.99277 23.4068 10.4607 23.0638 14.4015 21.9306C19.3933 20.4992 24.35 18.7844 29.4643 17.5916C47.5922 13.3867 76.5793 9.25647 99.3486 8.34691C104.673 8.13816 111.154 9.01789 105.636 4.93234C101.923 2.17385 94.7947 2.24841 89.9256 1.98001C88.4543 1.89055 86.8955 1.816 85.2666 1.74144C84.9163 2.27823 84.2508 2.63609 83.4976 2.63609C82.6569 2.63609 81.9388 2.20368 81.641 1.59233C62.8826 0.831885 37.2759 0.608224 21.6177 2.54662C14.6643 3.42636 9.77763 4.61922 6.51987 9.52486Z" fill="url(#paint2_linear_0_10293)"/>
<path style="mix-blend-mode:screen" fill-rule="evenodd" clip-rule="evenodd" d="M14.9621 2.7754C12.475 2.7754 9.14715 3.7446 7.3081 5.14621C7.02786 5.36987 6.74762 5.59353 6.50241 5.86193C5.64418 6.77148 6.11709 7.45738 7.3081 6.95041C11.0212 5.36987 12.5801 4.84799 15.1723 4.4454C15.5751 4.38576 15.9955 4.32612 16.4684 4.26647C17.8695 4.08755 17.6769 2.7754 14.9796 2.7754H14.9621ZM20.3742 2.11932C17.4317 2.34299 18.4651 3.65513 19.7261 3.62531C39.5004 2.98415 66.6834 2.67102 73.0939 2.6412C73.6894 2.6412 75.1081 2.43245 75.0555 1.98513C75.003 1.64218 73.882 1.31414 73.0588 1.28432C57.5757 0.732623 32.5645 1.16504 20.3742 2.11932Z" fill="url(#paint3_linear_0_10293)"/>
<path fill-rule="evenodd" clip-rule="evenodd" d="M8.32403 9.20215C10.6885 9.20215 12.1248 11.1107 12.1248 13.1237C12.1248 15.1366 9.9354 16.6426 7.57089 16.6426C5.20639 16.6426 3.29727 15.0173 3.29727 13.0044C3.29727 10.9914 5.95953 9.20215 8.32403 9.20215Z" fill="url(#paint4_linear_0_10293)"/>
<path fill-rule="evenodd" clip-rule="evenodd" d="M19.8835 6.13047C20.9168 6.68217 20.6016 7.71101 19.8309 8.54602C19.0603 9.36611 17.9043 9.45557 17.0986 9.00825C16.2929 8.56093 15.7675 7.50226 16.433 6.62253C17.0811 5.74279 18.8501 5.57878 19.8835 6.13047Z" fill="url(#paint5_linear_0_10293)"/>
<path fill-rule="evenodd" clip-rule="evenodd" d="M15.4702 24.2919C15.1899 25.3207 13.8413 25.9917 11.5468 25.6189C9.25238 25.2462 8.63936 24.0086 9.05972 22.7113C9.5151 21.3395 11.8446 20.937 13.4559 21.4737C14.7871 21.9211 15.7504 23.263 15.4702 24.277V24.2919Z" fill="url(#paint6_linear_0_10293)"/>
<path fill-rule="evenodd" clip-rule="evenodd" d="M16.4157 13.4068C17.6418 13.4367 19.0605 14.4506 19.2706 16.389C19.4983 18.3423 17.4666 19.0282 15.9078 19.0282C14.349 19.0282 12.8077 17.5968 13.0879 16.2846C13.3506 14.9725 15.1897 13.3919 16.4157 13.4068Z" fill="url(#paint7_linear_0_10293)"/>
<path fill-rule="evenodd" clip-rule="evenodd" d="M25.1553 23.8445C23.8767 23.8445 23.0885 24.6049 23.0885 25.4101C23.0885 26.2153 24.2795 26.8117 25.5581 26.8117C26.8367 26.8117 27.8876 26.1706 27.8876 25.3654C27.8876 24.5602 26.4339 23.8594 25.1553 23.8594V23.8445Z" fill="url(#paint8_linear_0_10293)"/>
<path style="mix-blend-mode:multiply" fill-rule="evenodd" clip-rule="evenodd" d="M3.55999 14.2569C3.63005 12.3781 6.11716 10.738 8.32403 10.738C10.5309 10.738 11.792 12.3781 11.9146 14.1823C12.0547 13.8543 12.1248 13.4964 12.1248 13.1237C12.1248 11.1107 10.6885 9.20215 8.32403 9.20215C5.95953 9.20215 3.29727 10.9914 3.29727 13.0044C3.29727 13.4517 3.38485 13.8692 3.55999 14.2569Z" fill="url(#paint9_linear_0_10293)"/>
<path style="mix-blend-mode:multiply" fill-rule="evenodd" clip-rule="evenodd" d="M16.4156 13.4069C15.1896 13.3771 13.3505 14.9576 13.0878 16.2847C13.0703 16.404 13.0528 16.5233 13.0528 16.6425C13.7709 15.4199 15.3122 14.2717 16.4332 14.2866C17.4665 14.3165 18.6225 14.9576 19.2355 16.2101C18.9378 14.391 17.5891 13.4367 16.3981 13.4218L16.4156 13.4069Z" fill="url(#paint10_linear_0_10293)"/>
<path style="mix-blend-mode:multiply" fill-rule="evenodd" clip-rule="evenodd" d="M16.2579 7.3382C16.976 6.369 18.9027 6.19007 20.0411 6.80142C20.2688 6.9207 20.4265 7.0549 20.5491 7.21892C20.5841 6.80142 20.4089 6.41374 19.901 6.13043C18.8676 5.57873 17.0986 5.72784 16.4506 6.62249C16.2404 6.90579 16.1528 7.21892 16.1528 7.51713C16.1879 7.45749 16.2229 7.39785 16.2754 7.3382H16.2579Z" fill="url(#paint11_linear_0_10293)"/>
<path style="mix-blend-mode:multiply" fill-rule="evenodd" clip-rule="evenodd" d="M13.4558 21.4884C11.8444 20.9516 9.51494 21.3542 9.05955 22.726C8.97198 22.9646 8.93695 23.218 8.93695 23.4417C9.54997 22.0997 11.932 21.7121 13.5959 22.2787C14.4191 22.562 15.1197 23.1584 15.505 23.8294C15.4525 22.9049 14.5767 21.8612 13.4558 21.4884Z" fill="url(#paint12_linear_0_10293)"/>
<path style="mix-blend-mode:multiply" fill-rule="evenodd" clip-rule="evenodd" d="M25.1553 23.8445C23.8767 23.8445 23.0885 24.6049 23.0885 25.4101C23.0885 25.4101 23.0885 25.425 23.0885 25.4399C23.4563 24.933 24.1569 24.5453 25.1203 24.5453C26.1711 24.5453 27.3271 24.9777 27.8701 25.5592C27.8701 25.4996 27.8876 25.425 27.8876 25.3654C27.8876 24.5602 26.4339 23.8594 25.1553 23.8594V23.8445Z" fill="url(#paint13_linear_0_10293)"/>
<path style="mix-blend-mode:screen" fill-rule="evenodd" clip-rule="evenodd" d="M11.3363 14.1375C11.6166 14.4059 10.5657 15.9417 8.72664 16.2548C6.88758 16.5679 5.10106 15.9268 5.3813 15.5391C5.66154 15.1514 7.06273 15.4347 8.58652 15.047C10.1278 14.6594 11.0561 13.8691 11.3363 14.1375Z" fill="url(#paint14_linear_0_10293)"/>
<path style="mix-blend-mode:screen" fill-rule="evenodd" clip-rule="evenodd" d="M18.9903 16.9407C19.2005 17.1495 18.4299 18.4616 16.9586 18.7151C16.4332 18.8046 15.9428 18.8642 15.5049 18.8046C14.7167 18.7002 14.1212 18.3125 14.2788 18.1187C14.5065 17.8055 15.6275 18.0292 16.8535 17.731C18.0796 17.4328 18.7802 16.7469 18.9903 16.9556V16.9407Z" fill="url(#paint15_linear_0_10293)"/>
<path style="mix-blend-mode:screen" fill-rule="evenodd" clip-rule="evenodd" d="M20.1992 7.60668C20.3393 7.80052 19.6562 8.90392 18.7279 9.12758C17.7996 9.35124 16.8889 8.88901 17.029 8.60571C17.1691 8.3224 17.8697 8.53115 18.6579 8.26276C19.446 7.99436 20.0591 7.41284 20.1992 7.60668Z" fill="url(#paint16_linear_0_10293)"/>
<path style="mix-blend-mode:screen" fill-rule="evenodd" clip-rule="evenodd" d="M15.2072 23.7251C15.6626 24.1575 14.8744 25.41 13.0879 25.4846C11.3014 25.5591 9.86515 25.1267 10.0928 24.7987C10.3205 24.4558 11.5291 24.7092 12.8602 24.3812C14.1913 24.0532 14.7518 23.2927 15.2072 23.7251Z" fill="url(#paint17_linear_0_10293)"/>
<path style="mix-blend-mode:screen" fill-rule="evenodd" clip-rule="evenodd" d="M27.6602 25.589C27.8003 25.7531 27.0997 26.5731 26.0313 26.6626C24.9629 26.7521 23.9646 26.3793 24.1572 26.1706C24.3324 25.9618 25.138 26.096 26.0313 25.9618C26.9246 25.8276 27.5201 25.4101 27.6602 25.589Z" fill="url(#paint18_linear_0_10293)"/>
<path fill-rule="evenodd" clip-rule="evenodd" d="M99.4708 4.10271C97.1413 4.28163 96.8086 5.72798 97.0012 7.33834C97.1939 8.9487 98.6301 9.87317 100.119 9.85826C101.59 9.84335 103.289 8.82942 103.289 7.21905C103.289 5.60869 101.8 3.92378 99.4708 4.10271Z" fill="url(#paint19_linear_0_10293)"/>
<path fill-rule="evenodd" clip-rule="evenodd" d="M102.134 14.6445C100.995 14.6445 100.312 13.72 100.312 12.7657C100.312 11.8114 101.363 11.0808 102.501 11.0808C103.64 11.0808 104.551 11.8711 104.551 12.8254C104.551 13.7797 103.272 14.6594 102.134 14.6594V14.6445Z" fill="url(#paint20_linear_0_10293)"/>
<path fill-rule="evenodd" clip-rule="evenodd" d="M85.6866 2.62636C85.9668 1.94047 87.7709 1.55279 89.172 1.88082C90.5732 2.22377 91.449 3.32717 91.0987 4.37092C90.7134 5.51905 88.9093 5.50414 87.4556 4.90771C86.2646 4.41565 85.3013 3.53592 85.6691 2.61145L85.6866 2.62636Z" fill="url(#paint21_linear_0_10293)"/>
<path style="mix-blend-mode:multiply" fill-rule="evenodd" clip-rule="evenodd" d="M86.0197 3.40189C86.2999 2.716 88.104 2.32832 89.5052 2.65635C90.2408 2.83528 90.8363 3.22296 91.1691 3.70011C91.064 2.88001 90.2933 2.13448 89.1724 1.88099C87.7712 1.53805 85.9672 1.94064 85.6869 2.62653C85.5118 3.05894 85.6344 3.47644 85.9321 3.84921C85.9321 3.70011 85.9496 3.551 86.0197 3.40189Z" fill="url(#paint22_linear_0_10293)"/>
<path style="mix-blend-mode:multiply" fill-rule="evenodd" clip-rule="evenodd" d="M99.4708 4.10271C97.1413 4.28163 96.8086 5.72798 97.0012 7.33834C97.0187 7.48745 97.0538 7.63656 97.0888 7.77075C97.0888 6.47352 97.6318 5.39994 99.6109 5.25083C101.503 5.10173 102.851 6.19021 103.272 7.47254C103.272 7.38307 103.272 7.30852 103.272 7.21905C103.272 5.60869 101.783 3.92378 99.4533 4.10271H99.4708Z" fill="url(#paint23_linear_0_10293)"/>
<path style="mix-blend-mode:multiply" fill-rule="evenodd" clip-rule="evenodd" d="M102.501 11.0659C101.363 11.0659 100.312 11.7965 100.312 12.7508C100.312 12.9149 100.33 13.0789 100.365 13.2429C100.557 12.4228 101.503 11.8413 102.519 11.8413C103.465 11.8413 104.27 12.393 104.498 13.1236C104.533 13.0192 104.551 12.9149 104.551 12.8105C104.551 11.8413 103.622 11.0659 102.501 11.0659Z" fill="url(#paint24_linear_0_10293)"/>
<path style="mix-blend-mode:screen" fill-rule="evenodd" clip-rule="evenodd" d="M90.9589 3.93859C91.099 4.13243 90.8713 4.95252 89.8554 5.16127C88.8396 5.37002 87.6661 4.90779 87.8062 4.62448C87.9463 4.34118 88.5418 4.62448 89.5227 4.43064C90.5035 4.2368 90.8012 3.75966 90.9414 3.93859H90.9589Z" fill="url(#paint25_linear_0_10293)"/>
<path style="mix-blend-mode:screen" fill-rule="evenodd" clip-rule="evenodd" d="M102.939 7.69606C103.15 7.90481 102.677 9.14241 100.855 9.64937C99.8568 9.93268 98.0878 9.45553 98.2979 8.93365C98.4381 8.59071 99.6116 8.8591 100.838 8.56089C102.064 8.26267 102.729 7.4724 102.939 7.69606Z" fill="url(#paint26_linear_0_10293)"/>
<path style="mix-blend-mode:screen" fill-rule="evenodd" clip-rule="evenodd" d="M104.305 13.064C104.446 13.2578 103.78 14.2121 102.764 14.4656C101.748 14.7191 100.925 14.227 101.065 13.9437C101.205 13.6604 101.906 13.8543 102.694 13.6008C103.482 13.3473 104.165 12.8701 104.305 13.064Z" fill="url(#paint27_linear_0_10293)"/>
<path fill-rule="evenodd" clip-rule="evenodd" d="M93.0958 23.7848C92.0799 22.5174 92.8681 20.907 94.3569 20.0422C95.8456 19.1774 98.8932 19.1774 100.067 20.7579C101.24 22.3385 100.347 24.0234 98.0875 24.8435C95.8281 25.6785 94.1117 25.0522 93.0958 23.7848Z" fill="url(#paint28_linear_0_10293)"/>
<path style="mix-blend-mode:multiply" fill-rule="evenodd" clip-rule="evenodd" d="M100.067 20.7579C98.8931 19.1774 95.8455 19.1774 94.3568 20.0422C93.0607 20.7878 92.3075 22.085 92.7804 23.248C93.0256 22.577 93.6036 21.9508 94.3568 21.5035C95.8455 20.6386 98.8931 20.6386 100.067 22.2192C100.224 22.4428 100.364 22.6665 100.434 22.8902C100.697 22.2192 100.592 21.4736 100.067 20.743V20.7579Z" fill="url(#paint29_linear_0_10293)"/>
<path style="mix-blend-mode:screen" fill-rule="evenodd" clip-rule="evenodd" d="M100.032 22.9647C100.259 23.2331 98.788 24.754 96.914 24.9926C95.0574 25.2311 93.8138 24.4558 94.1116 24.1278C94.4093 23.7997 95.793 24.1427 97.1592 23.7997C98.5253 23.4568 99.8039 22.6963 100.014 22.9647H100.032Z" fill="url(#paint30_linear_0_10293)"/>
<g clip-path="url(#clip0_0_10293)">
<path d="M15.0413 13.6366C15.0413 13.6366 22.5623 10.5593 25.1711 9.47722C26.1728 9.04324 29.5626 7.65677 29.5626 7.65677C29.5626 7.65677 31.1245 7.04807 30.9943 8.52472C30.9491 9.13342 30.6039 11.2526 30.253 13.5465C29.7324 16.7928 29.1664 20.3436 29.1664 20.3436C29.1664 20.3436 29.0816 21.3411 28.3402 21.5102C27.5989 21.6849 26.3822 20.9072 26.1671 20.7324C25.9917 20.6028 22.9075 18.6527 21.7756 17.7002C21.47 17.441 21.1248 16.9225 21.8209 16.3138C23.3828 14.8878 25.256 13.1125 26.3822 11.9853C26.9028 11.4667 27.4234 10.255 25.2503 11.726C22.1661 13.8452 19.1215 15.8403 19.1215 15.8403C19.1215 15.8403 18.4254 16.2743 17.1238 15.8854C15.8222 15.4965 14.2999 14.978 14.2999 14.978C14.2999 14.978 13.2587 14.3299 15.0413 13.6366Z" fill="white"/>
</g>
<path d="M44.2344 9.36646C44.2344 9.62687 44.1302 9.86646 43.9219 10.0852C43.724 10.2935 43.4792 10.481 43.1875 10.6477C42.9062 10.804 42.6146 10.9342 42.3125 11.0383C42.0104 11.1425 41.7604 11.2154 41.5625 11.2571C41.4792 12.0592 41.4115 12.8612 41.3594 13.6633C41.3177 14.455 41.2969 15.2519 41.2969 16.054C41.2969 16.481 41.3073 16.9029 41.3281 17.3196C41.349 17.7362 41.3594 18.1529 41.3594 18.5696C41.3594 18.7571 41.3385 18.9654 41.2969 19.1946C41.2656 19.4133 41.2031 19.6217 41.1094 19.8196C41.026 20.0175 40.9062 20.1842 40.75 20.3196C40.5938 20.455 40.401 20.5227 40.1719 20.5227C39.901 20.5227 39.6823 20.4446 39.5156 20.2883C39.3594 20.1425 39.2344 19.9602 39.1406 19.7415C39.0573 19.5227 39 19.2935 38.9688 19.054C38.9375 18.804 38.9219 18.58 38.9219 18.3821C38.901 17.7571 38.8854 17.1321 38.875 16.5071C38.8646 15.8717 38.8594 15.2362 38.8594 14.6008C38.8594 14.0696 38.8594 13.5487 38.8594 13.0383C38.8698 12.5279 38.875 12.0071 38.875 11.4758C38.7292 11.4967 38.5781 11.5123 38.4219 11.5227C38.276 11.5331 38.125 11.5383 37.9688 11.5383C37.8438 11.5383 37.6771 11.5279 37.4688 11.5071C37.2708 11.4758 37.0781 11.429 36.8906 11.3665C36.7031 11.2935 36.5417 11.1998 36.4062 11.0852C36.2708 10.9602 36.2031 10.804 36.2031 10.6165C36.2031 10.304 36.3281 10.0331 36.5781 9.80396C36.8177 9.56437 37.125 9.36125 37.5 9.19458C37.8854 9.0175 38.3073 8.87166 38.7656 8.75708C39.2344 8.63208 39.6927 8.53833 40.1406 8.47583C40.599 8.40291 41.0156 8.35083 41.3906 8.31958C41.776 8.28833 42.0729 8.27271 42.2812 8.27271C42.4792 8.27271 42.6875 8.28312 42.9062 8.30396C43.1354 8.31437 43.349 8.35604 43.5469 8.42896C43.7448 8.50187 43.9062 8.61125 44.0312 8.75708C44.1667 8.90291 44.2344 9.10604 44.2344 9.36646ZM49.4163 17.2571C49.4163 17.6112 49.3017 17.9602 49.0725 18.304C48.8538 18.6373 48.5725 18.9394 48.2288 19.2102C47.8954 19.4706 47.536 19.6842 47.1506 19.8508C46.7652 20.0071 46.411 20.0852 46.0881 20.0852C45.536 20.0852 45.0413 19.9498 44.6038 19.679C44.1767 19.3977 43.8173 19.0435 43.5256 18.6165C43.234 18.1894 43.01 17.7206 42.8538 17.2102C42.7079 16.6894 42.635 16.1842 42.635 15.6946C42.635 15.1737 42.7079 14.6165 42.8538 14.0227C42.9996 13.429 43.2183 12.8821 43.51 12.3821C43.8121 11.8821 44.1871 11.4654 44.635 11.1321C45.0933 10.7987 45.635 10.6321 46.26 10.6321C46.6142 10.6321 46.9527 10.6946 47.2756 10.8196C47.5985 10.9342 47.8798 11.1008 48.1194 11.3196C48.359 11.5383 48.5517 11.7987 48.6975 12.1008C48.8433 12.4029 48.9163 12.7415 48.9163 13.1165C48.9163 13.606 48.8121 14.0644 48.6038 14.4915C48.3954 14.9185 48.1194 15.2883 47.7756 15.6008C47.4319 15.9133 47.036 16.1685 46.5881 16.3665C46.1402 16.554 45.6819 16.6581 45.2131 16.679C45.2548 16.981 45.3746 17.1998 45.5725 17.3352C45.7808 17.4706 46.0256 17.5383 46.3069 17.5383C46.5152 17.5383 46.7183 17.4862 46.9163 17.3821C47.1142 17.2779 47.3069 17.1633 47.4944 17.0383C47.6819 16.9029 47.8642 16.7831 48.0413 16.679C48.2288 16.5748 48.4163 16.5227 48.6038 16.5227C48.8121 16.5227 48.9996 16.5904 49.1663 16.7258C49.3329 16.8612 49.4163 17.0383 49.4163 17.2571ZM46.885 13.429C46.885 13.2935 46.8485 13.1529 46.7756 13.0071C46.7027 12.8612 46.5881 12.7883 46.4319 12.7883C46.2027 12.7883 46.01 12.8508 45.8538 12.9758C45.6975 13.0904 45.5673 13.2415 45.4631 13.429C45.359 13.606 45.2756 13.7987 45.2131 14.0071C45.161 14.2154 45.1298 14.4081 45.1194 14.5852C45.2652 14.554 45.4371 14.5123 45.635 14.4602C45.8433 14.4081 46.036 14.3404 46.2131 14.2571C46.4006 14.1633 46.5569 14.0487 46.6819 13.9133C46.8173 13.7779 46.885 13.6165 46.885 13.429ZM52.7231 10.5696C52.7231 11.1321 52.6971 11.6998 52.645 12.2727C52.6033 12.8352 52.5825 13.4029 52.5825 13.9758C52.5825 14.7154 52.6033 15.455 52.645 16.1946C52.6971 16.9342 52.7231 17.679 52.7231 18.429C52.7231 18.6165 52.7127 18.83 52.6919 19.0696C52.671 19.2987 52.619 19.5123 52.5356 19.7102C52.4627 19.9081 52.3481 20.0748 52.1919 20.2102C52.0356 20.3456 51.8273 20.4133 51.5669 20.4133C51.3169 20.4133 51.0981 20.2883 50.9106 20.0383C50.7335 19.7987 50.5825 19.4915 50.4575 19.1165C50.3429 18.731 50.244 18.304 50.1606 17.8352C50.0877 17.3665 50.0304 16.9133 49.9888 16.4758C49.9575 16.0279 49.9315 15.6217 49.9106 15.2571C49.9002 14.8821 49.895 14.606 49.895 14.429C49.895 14.231 49.9002 13.9446 49.9106 13.5696C49.9315 13.1946 49.9679 12.7883 50.02 12.3508C50.0721 11.9133 50.1398 11.4706 50.2231 11.0227C50.3169 10.5644 50.4367 10.1529 50.5825 9.78833C50.7283 9.41333 50.9002 9.11125 51.0981 8.88208C51.3065 8.6425 51.5513 8.52271 51.8325 8.52271C52.0617 8.52271 52.2335 8.60083 52.3481 8.75708C52.4731 8.90291 52.5617 9.08521 52.6138 9.30396C52.6658 9.51229 52.6971 9.73625 52.7075 9.97583C52.7179 10.205 52.7231 10.4029 52.7231 10.5696ZM60.2175 17.2571C60.2175 17.6112 60.1029 17.9602 59.8738 18.304C59.655 18.6373 59.3738 18.9394 59.03 19.2102C58.6967 19.4706 58.3373 19.6842 57.9519 19.8508C57.5665 20.0071 57.2123 20.0852 56.8894 20.0852C56.3373 20.0852 55.8425 19.9498 55.405 19.679C54.9779 19.3977 54.6185 19.0435 54.3269 18.6165C54.0352 18.1894 53.8113 17.7206 53.655 17.2102C53.5092 16.6894 53.4363 16.1842 53.4363 15.6946C53.4363 15.1737 53.5092 14.6165 53.655 14.0227C53.8008 13.429 54.0196 12.8821 54.3113 12.3821C54.6133 11.8821 54.9883 11.4654 55.4363 11.1321C55.8946 10.7987 56.4363 10.6321 57.0613 10.6321C57.4154 10.6321 57.754 10.6946 58.0769 10.8196C58.3998 10.9342 58.681 11.1008 58.9206 11.3196C59.1602 11.5383 59.3529 11.7987 59.4988 12.1008C59.6446 12.4029 59.7175 12.7415 59.7175 13.1165C59.7175 13.606 59.6133 14.0644 59.405 14.4915C59.1967 14.9185 58.9206 15.2883 58.5769 15.6008C58.2331 15.9133 57.8373 16.1685 57.3894 16.3665C56.9415 16.554 56.4831 16.6581 56.0144 16.679C56.056 16.981 56.1758 17.1998 56.3738 17.3352C56.5821 17.4706 56.8269 17.5383 57.1081 17.5383C57.3165 17.5383 57.5196 17.4862 57.7175 17.3821C57.9154 17.2779 58.1081 17.1633 58.2956 17.0383C58.4831 16.9029 58.6654 16.7831 58.8425 16.679C59.03 16.5748 59.2175 16.5227 59.405 16.5227C59.6133 16.5227 59.8008 16.5904 59.9675 16.7258C60.1342 16.8612 60.2175 17.0383 60.2175 17.2571ZM57.6863 13.429C57.6863 13.2935 57.6498 13.1529 57.5769 13.0071C57.504 12.8612 57.3894 12.7883 57.2331 12.7883C57.004 12.7883 56.8113 12.8508 56.655 12.9758C56.4988 13.0904 56.3685 13.2415 56.2644 13.429C56.1602 13.606 56.0769 13.7987 56.0144 14.0071C55.9623 14.2154 55.931 14.4081 55.9206 14.5852C56.0665 14.554 56.2383 14.5123 56.4363 14.4602C56.6446 14.4081 56.8373 14.3404 57.0144 14.2571C57.2019 14.1633 57.3581 14.0487 57.4831 13.9133C57.6185 13.7779 57.6863 13.6165 57.6863 13.429ZM67.6806 14.7102C67.6806 15.2415 67.6702 15.7727 67.6494 16.304C67.639 16.8352 67.6129 17.3665 67.5713 17.8977C67.54 18.356 67.4983 18.8456 67.4463 19.3665C67.3942 19.8873 67.3108 20.4029 67.1963 20.9133C67.0817 21.4342 66.9306 21.929 66.7431 22.3977C66.5556 22.8769 66.3056 23.2987 65.9931 23.6633C65.691 24.0279 65.3213 24.3196 64.8838 24.5383C64.4463 24.7571 63.9254 24.8665 63.3213 24.8665C63.04 24.8665 62.7223 24.8196 62.3681 24.7258C62.0244 24.6425 61.6963 24.5175 61.3838 24.3508C61.0817 24.1842 60.8213 23.9758 60.6025 23.7258C60.3942 23.4862 60.29 23.205 60.29 22.8821C60.29 22.6425 60.3733 22.4185 60.54 22.2102C60.7171 22.0123 60.941 21.9133 61.2119 21.9133C61.3785 21.9133 61.5348 21.9394 61.6806 21.9915C61.8369 22.054 61.9879 22.1217 62.1338 22.1946C62.29 22.2675 62.4358 22.33 62.5713 22.3821C62.7171 22.4446 62.8629 22.4758 63.0088 22.4758C63.3942 22.4758 63.7171 22.3769 63.9775 22.179C64.2379 21.9915 64.4463 21.7467 64.6025 21.4446C64.7588 21.1529 64.8733 20.83 64.9463 20.4758C65.0296 20.1321 65.0869 19.804 65.1181 19.4915C64.9098 19.731 64.665 19.8977 64.3838 19.9915C64.1129 20.0748 63.8265 20.1165 63.5244 20.1165C62.9723 20.1165 62.5035 20.0227 62.1181 19.8352C61.7327 19.6373 61.4202 19.3717 61.1806 19.0383C60.941 18.6946 60.764 18.2987 60.6494 17.8508C60.5348 17.4029 60.4775 16.9185 60.4775 16.3977C60.4775 16.0748 60.5088 15.7102 60.5713 15.304C60.6442 14.8977 60.7483 14.4862 60.8838 14.0696C61.0192 13.6529 61.1858 13.2467 61.3838 12.8508C61.5921 12.455 61.8317 12.106 62.1025 11.804C62.3733 11.5019 62.6754 11.2571 63.0088 11.0696C63.3525 10.8821 63.7275 10.7883 64.1338 10.7883C64.5296 10.7883 64.8785 10.9029 65.1806 11.1321C65.4931 11.3612 65.6754 11.6842 65.7275 12.1008C65.8421 11.8821 65.9931 11.6685 66.1806 11.4602C66.3681 11.2415 66.5973 11.1321 66.8681 11.1321C67.014 11.1321 67.1338 11.205 67.2275 11.3508C67.3317 11.4967 67.4098 11.6894 67.4619 11.929C67.5244 12.1581 67.5713 12.4133 67.6025 12.6946C67.6338 12.9654 67.6546 13.2362 67.665 13.5071C67.6754 13.7675 67.6806 14.0071 67.6806 14.2258C67.6806 14.4446 67.6806 14.606 67.6806 14.7102ZM65.3056 15.7258C65.3056 15.5696 65.2796 15.3665 65.2275 15.1165C65.1858 14.8665 65.1181 14.6269 65.0244 14.3977C64.941 14.1685 64.8317 13.9706 64.6963 13.804C64.5608 13.6373 64.3994 13.554 64.2119 13.554C63.9723 13.554 63.7588 13.6373 63.5713 13.804C63.3942 13.9706 63.2431 14.1737 63.1181 14.4133C62.9931 14.6425 62.8942 14.8925 62.8213 15.1633C62.7588 15.4237 62.7275 15.6477 62.7275 15.8352C62.7275 15.9706 62.7379 16.1529 62.7588 16.3821C62.7796 16.6112 62.8213 16.8352 62.8838 17.054C62.9567 17.2727 63.0504 17.4602 63.165 17.6165C63.2796 17.7727 63.4306 17.8508 63.6181 17.8508C63.8994 17.8508 64.1442 17.7831 64.3525 17.6477C64.5608 17.5123 64.7327 17.3404 64.8681 17.1321C65.014 16.9237 65.1233 16.6946 65.1963 16.4446C65.2692 16.1946 65.3056 15.955 65.3056 15.7258ZM73.9719 14.1946C73.826 14.205 73.701 14.1946 73.5969 14.1633C73.4927 14.1217 73.3885 14.08 73.2844 14.0383C73.1906 13.9967 73.0969 13.9602 73.0031 13.929C72.9094 13.8873 72.8052 13.8717 72.6906 13.8821C72.4823 13.8925 72.2948 13.9498 72.1281 14.054C71.9719 14.1581 71.826 14.2883 71.6906 14.4446C71.5656 14.6008 71.4562 14.7779 71.3625 14.9758C71.2687 15.1633 71.1958 15.3508 71.1437 15.5383C71.1125 15.6633 71.0865 15.856 71.0656 16.1165C71.0552 16.3665 71.05 16.6373 71.05 16.929C71.0396 17.231 71.0344 17.5175 71.0344 17.7883C71.0344 18.0592 71.024 18.2727 71.0031 18.429C70.9927 18.5956 70.9667 18.7935 70.925 19.0227C70.8833 19.2415 70.8156 19.4498 70.7219 19.6477C70.6385 19.8456 70.524 20.0123 70.3781 20.1477C70.2323 20.2831 70.0448 20.3508 69.8156 20.3508C69.6385 20.3508 69.4823 20.2987 69.3469 20.1946C69.2219 20.0904 69.1125 19.955 69.0187 19.7883C68.9354 19.6112 68.8625 19.4081 68.8 19.179C68.7479 18.9498 68.7062 18.7154 68.675 18.4758C68.6437 18.2258 68.6177 17.9758 68.5969 17.7258C68.5865 17.4758 68.576 17.2415 68.5656 17.0227C68.5656 16.7935 68.5656 16.5852 68.5656 16.3977C68.576 16.2102 68.5812 16.0592 68.5812 15.9446C68.5708 15.58 68.55 15.2154 68.5187 14.8508C68.4979 14.4758 68.4875 14.106 68.4875 13.7415C68.4875 13.5123 68.4979 13.2571 68.5187 12.9758C68.5396 12.6946 68.5969 12.4342 68.6906 12.1946C68.7844 11.9446 68.9198 11.7362 69.0969 11.5696C69.2844 11.4029 69.5396 11.3196 69.8625 11.3196C70.0396 11.3196 70.1906 11.3769 70.3156 11.4915C70.4406 11.606 70.5396 11.7467 70.6125 11.9133C70.6958 12.08 70.7583 12.2571 70.8 12.4446C70.8417 12.6321 70.8677 12.804 70.8781 12.9602C71.1281 12.554 71.4094 12.2258 71.7219 11.9758C72.0344 11.7154 72.4406 11.5748 72.9406 11.554C73.1906 11.5435 73.4354 11.5696 73.675 11.6321C73.925 11.6842 74.149 11.7779 74.3469 11.9133C74.5552 12.0383 74.7219 12.205 74.8469 12.4133C74.9823 12.6217 75.0552 12.8665 75.0656 13.1477C75.0865 13.481 74.9875 13.7362 74.7687 13.9133C74.55 14.0904 74.2844 14.1842 73.9719 14.1946ZM81.7006 17.8352C81.7006 18.0227 81.6902 18.2675 81.6694 18.5696C81.659 18.8717 81.6173 19.1685 81.5444 19.4602C81.4715 19.7415 81.3569 19.9862 81.2006 20.1946C81.0444 20.4029 80.8256 20.5071 80.5444 20.5071C80.159 20.5071 79.8621 20.3821 79.6538 20.1321C79.4454 19.8821 79.3465 19.5696 79.3569 19.1946C79.0235 19.4862 78.6433 19.7154 78.2163 19.8821C77.7996 20.0487 77.3725 20.1321 76.935 20.1321C76.6329 20.1321 76.3465 20.0592 76.0756 19.9133C75.8048 19.7675 75.5652 19.58 75.3569 19.3508C75.1485 19.1217 74.9819 18.8665 74.8569 18.5852C74.7319 18.2935 74.6694 18.0071 74.6694 17.7258C74.6694 17.2258 74.8204 16.7883 75.1225 16.4133C75.435 16.0383 75.8152 15.7206 76.2631 15.4602C76.711 15.1894 77.185 14.9758 77.685 14.8196C78.1954 14.6633 78.6485 14.5592 79.0444 14.5071C79.0444 14.455 79.0444 14.4081 79.0444 14.3665C79.0548 14.3248 79.06 14.2779 79.06 14.2258C79.06 13.9029 78.9715 13.6425 78.7944 13.4446C78.6173 13.2467 78.3673 13.1477 78.0444 13.1477C77.784 13.1477 77.56 13.1946 77.3725 13.2883C77.185 13.3717 77.0079 13.4706 76.8413 13.5852C76.6746 13.6894 76.5079 13.7883 76.3413 13.8821C76.1746 13.9654 75.9871 14.0071 75.7788 14.0071C75.5496 14.0071 75.3517 13.9342 75.185 13.7883C75.0288 13.6425 74.9506 13.455 74.9506 13.2258C74.9506 12.8821 75.0496 12.5696 75.2475 12.2883C75.4558 12.0071 75.711 11.7727 76.0131 11.5852C76.3256 11.3873 76.659 11.2362 77.0131 11.1321C77.3777 11.0175 77.711 10.9602 78.0131 10.9602C78.2944 10.9602 78.5756 10.9967 78.8569 11.0696C79.1381 11.1321 79.4038 11.2362 79.6538 11.3821C79.9038 11.5175 80.1277 11.6894 80.3256 11.8977C80.534 12.0956 80.7006 12.33 80.8256 12.6008C81.0131 12.9862 81.1642 13.3977 81.2788 13.8352C81.3933 14.2623 81.4819 14.705 81.5444 15.1633C81.6069 15.6112 81.6485 16.0644 81.6694 16.5227C81.6902 16.9706 81.7006 17.4081 81.7006 17.8352ZM79.2006 17.3352L79.1538 16.2727C79.1329 16.2727 79.1121 16.2727 79.0913 16.2727C79.0704 16.2623 79.0496 16.2571 79.0288 16.2571C78.8933 16.2571 78.7215 16.2935 78.5131 16.3665C78.3152 16.429 78.1225 16.5227 77.935 16.6477C77.7475 16.7623 77.586 16.8925 77.4506 17.0383C77.3256 17.1842 77.2631 17.3352 77.2631 17.4915C77.2631 17.6373 77.3152 17.7362 77.4194 17.7883C77.5235 17.8404 77.6433 17.8665 77.7788 17.8665C78.0079 17.8665 78.2527 17.8092 78.5131 17.6946C78.7735 17.5696 79.0027 17.4498 79.2006 17.3352ZM91.8825 14.8821C91.8825 15.08 91.8825 15.3508 91.8825 15.6946C91.8825 16.0279 91.8721 16.3925 91.8512 16.7883C91.8408 17.1842 91.8096 17.5852 91.7575 17.9915C91.7054 18.3873 91.6221 18.7467 91.5075 19.0696C91.4033 19.3925 91.2679 19.6581 91.1012 19.8665C90.9346 20.0748 90.721 20.179 90.4606 20.179C90.2315 20.179 90.0544 20.0852 89.9294 19.8977C89.8148 19.6998 89.7315 19.4706 89.6794 19.2102C89.6273 18.9498 89.596 18.6842 89.5856 18.4133C89.5856 18.1425 89.5856 17.929 89.5856 17.7727C89.5856 17.304 89.6012 16.8456 89.6325 16.3977C89.6637 15.9498 89.6794 15.4915 89.6794 15.0227C89.6794 14.9706 89.6794 14.8769 89.6794 14.7415C89.6794 14.606 89.669 14.4706 89.6481 14.3352C89.6273 14.1998 89.5908 14.08 89.5387 13.9758C89.4971 13.8717 89.4294 13.8196 89.3356 13.8196C89.1481 13.8196 88.9971 13.9185 88.8825 14.1165C88.7679 14.304 88.6742 14.5279 88.6012 14.7883C88.5283 15.0487 88.4762 15.3092 88.445 15.5696C88.4137 15.8196 88.3929 16.0071 88.3825 16.1321C88.3617 16.2675 88.3408 16.4706 88.32 16.7415C88.3096 17.0123 88.2887 17.3092 88.2575 17.6321C88.2367 17.955 88.195 18.2883 88.1325 18.6321C88.0804 18.9654 88.0075 19.2727 87.9137 19.554C87.8304 19.8248 87.721 20.0487 87.5856 20.2258C87.4502 20.4029 87.2835 20.4915 87.0856 20.4915C86.8356 20.4915 86.6429 20.3821 86.5075 20.1633C86.3721 19.9446 86.2731 19.6894 86.2106 19.3977C86.1481 19.106 86.1065 18.8092 86.0856 18.5071C86.0752 18.205 86.07 17.9706 86.07 17.804C86.07 17.6269 86.07 17.455 86.07 17.2883C86.0804 17.1217 86.0856 16.9498 86.0856 16.7727C86.0856 16.6998 86.0856 16.58 86.0856 16.4133C86.0856 16.2467 86.0804 16.0644 86.07 15.8665C86.07 15.6581 86.0596 15.4446 86.0387 15.2258C86.0283 15.0071 86.0075 14.8092 85.9762 14.6321C85.945 14.4446 85.8981 14.2935 85.8356 14.179C85.7731 14.0644 85.7002 14.0071 85.6169 14.0071C85.4815 14.0071 85.3565 14.0956 85.2419 14.2727C85.1273 14.4394 85.0283 14.6425 84.945 14.8821C84.8617 15.1112 84.794 15.3404 84.7419 15.5696C84.7002 15.7987 84.6794 15.9654 84.6794 16.0696V16.1633C84.6794 16.6633 84.7106 17.1529 84.7731 17.6321C84.8356 18.1112 84.8669 18.6008 84.8669 19.1008C84.8669 19.3925 84.7731 19.6633 84.5856 19.9133C84.3981 20.1529 84.1377 20.2727 83.8044 20.2727C83.5648 20.2727 83.3669 20.1842 83.2106 20.0071C83.0544 19.8196 82.9242 19.58 82.82 19.2883C82.7158 18.9967 82.6325 18.679 82.57 18.3352C82.5179 17.981 82.4815 17.6373 82.4606 17.304C82.4398 16.9602 82.4242 16.6529 82.4137 16.3821C82.4137 16.1008 82.4137 15.8925 82.4137 15.7571C82.4137 15.6008 82.4085 15.3717 82.3981 15.0696C82.3981 14.7675 82.4033 14.4394 82.4137 14.0852C82.4346 13.731 82.4658 13.3717 82.5075 13.0071C82.5492 12.6321 82.6169 12.2935 82.7106 11.9915C82.8044 11.6894 82.9242 11.4446 83.07 11.2571C83.2262 11.0592 83.4242 10.9602 83.6637 10.9602C83.9346 10.9602 84.1533 11.0331 84.32 11.179C84.4971 11.3248 84.5856 11.5435 84.5856 11.8352C84.5856 11.8977 84.5804 11.9602 84.57 12.0227C84.57 12.0852 84.5648 12.1425 84.5544 12.1946C84.669 12.0279 84.8096 11.8612 84.9762 11.6946C85.1429 11.5175 85.32 11.3612 85.5075 11.2258C85.7054 11.08 85.9137 10.9654 86.1325 10.8821C86.3512 10.7883 86.57 10.7415 86.7887 10.7415C86.9971 10.7415 87.1846 10.7987 87.3512 10.9133C87.5179 11.0279 87.6637 11.1737 87.7887 11.3508C87.9137 11.5175 88.0179 11.6998 88.1012 11.8977C88.1846 12.0956 88.2419 12.2831 88.2731 12.4602C88.3773 12.2727 88.5023 12.0852 88.6481 11.8977C88.8044 11.6998 88.971 11.5279 89.1481 11.3821C89.3252 11.2362 89.5179 11.1165 89.7262 11.0227C89.945 10.929 90.169 10.8821 90.3981 10.8821C90.6169 10.8821 90.8044 10.9602 90.9606 11.1165C91.1169 11.2727 91.2523 11.4758 91.3669 11.7258C91.4815 11.9654 91.57 12.2415 91.6325 12.554C91.695 12.856 91.7471 13.1581 91.7887 13.4602C91.8304 13.7519 91.8565 14.0279 91.8669 14.2883C91.8773 14.5383 91.8825 14.7362 91.8825 14.8821Z" fill="white"/>
<defs>
<linearGradient id="paint0_linear_0_10293" x1="55.8243" y1="29.958" x2="55.8243" y2="0.0469875" gradientUnits="userSpaceOnUse">
<stop stop-color="#05C7E1"/>
<stop offset="1" stop-color="#5BFFF5"/>
</linearGradient>
<radialGradient id="paint1_radial_0_10293" cx="0" cy="0" r="1" gradientUnits="userSpaceOnUse" gradientTransform="translate(51.6377 -22.9008) scale(107.944 91.895)">
<stop offset="0.26" stop-color="white"/>
<stop offset="1" stop-color="#F59F2E"/>
</radialGradient>
<linearGradient id="paint2_linear_0_10293" x1="58.5039" y1="19.0677" x2="53.0339" y2="-4.94775" gradientUnits="userSpaceOnUse">
<stop/>
<stop offset="1" stop-color="#7DF8E9"/>
</linearGradient>
<linearGradient id="paint3_linear_0_10293" x1="48.0476" y1="15.4495" x2="35.9692" y2="-9.1149" gradientUnits="userSpaceOnUse">
<stop/>
<stop offset="1" stop-color="#7DF8F1"/>
</linearGradient>
<linearGradient id="paint4_linear_0_10293" x1="7.71101" y1="16.6426" x2="7.71101" y2="9.20215" gradientUnits="userSpaceOnUse">
<stop stop-color="#69DBFF"/>
<stop offset="1" stop-color="#00EDDF"/>
</linearGradient>
<linearGradient id="paint5_linear_0_10293" x1="18.3422" y1="9.27664" x2="18.3422" y2="5.81735" gradientUnits="userSpaceOnUse">
<stop stop-color="#42E2F4"/>
<stop offset="1" stop-color="#28E7EC"/>
</linearGradient>
<linearGradient id="paint6_linear_0_10293" x1="12.2299" y1="25.7233" x2="12.2299" y2="21.2501" gradientUnits="userSpaceOnUse">
<stop stop-color="#39E4F1"/>
<stop offset="1" stop-color="#1BE9E8"/>
</linearGradient>
<linearGradient id="paint7_linear_0_10293" x1="16.1705" y1="19.0282" x2="16.1705" y2="13.4068" gradientUnits="userSpaceOnUse">
<stop stop-color="#2BE7ED"/>
<stop offset="1" stop-color="#24E7EA"/>
</linearGradient>
<linearGradient id="paint8_linear_0_10293" x1="25.4881" y1="26.7968" x2="25.4881" y2="23.8445" gradientUnits="userSpaceOnUse">
<stop stop-color="#2AE7ED"/>
<stop offset="1" stop-color="#25E8EC"/>
</linearGradient>
<linearGradient id="paint9_linear_0_10293" x1="7.71101" y1="14.2569" x2="7.71101" y2="9.20215" gradientUnits="userSpaceOnUse">
<stop stop-color="white"/>
<stop offset="1" stop-color="#E8D06F"/>
</linearGradient>
<linearGradient id="paint10_linear_0_10293" x1="16.1529" y1="16.6276" x2="16.1529" y2="13.4069" gradientUnits="userSpaceOnUse">
<stop stop-color="white"/>
<stop offset="1" stop-color="#E8D06F"/>
</linearGradient>
<linearGradient id="paint11_linear_0_10293" x1="18.3422" y1="7.51713" x2="18.3422" y2="5.81731" gradientUnits="userSpaceOnUse">
<stop stop-color="white"/>
<stop offset="1" stop-color="#E8D06F"/>
</linearGradient>
<linearGradient id="paint12_linear_0_10293" x1="12.2297" y1="23.8294" x2="12.2297" y2="21.2498" gradientUnits="userSpaceOnUse">
<stop stop-color="white"/>
<stop offset="1" stop-color="#E8D06F"/>
</linearGradient>
<linearGradient id="paint13_linear_0_10293" x1="25.4881" y1="25.5592" x2="25.4881" y2="23.8445" gradientUnits="userSpaceOnUse">
<stop stop-color="white"/>
<stop offset="1" stop-color="#E8D06F"/>
</linearGradient>
<linearGradient id="paint14_linear_0_10293" x1="8.77918" y1="16.2548" x2="8.43027" y2="14.6913" gradientUnits="userSpaceOnUse">
<stop stop-color="#F8E07D"/>
<stop offset="1"/>
</linearGradient>
<linearGradient id="paint15_linear_0_10293" x1="16.9761" y1="18.7002" x2="16.6787" y2="17.3939" gradientUnits="userSpaceOnUse">
<stop stop-color="#F8E07D"/>
<stop offset="1"/>
</linearGradient>
<linearGradient id="paint16_linear_0_10293" x1="18.9031" y1="9.08285" x2="18.6314" y2="7.89776" gradientUnits="userSpaceOnUse">
<stop stop-color="#F8E07D"/>
<stop offset="1"/>
</linearGradient>
<linearGradient id="paint17_linear_0_10293" x1="13.0528" y1="25.5591" x2="12.7166" y2="24.0856" gradientUnits="userSpaceOnUse">
<stop stop-color="#F8E07D"/>
<stop offset="1"/>
</linearGradient>
<linearGradient id="paint18_linear_0_10293" x1="26.1364" y1="26.6626" x2="25.9164" y2="25.72" gradientUnits="userSpaceOnUse">
<stop stop-color="#F8E07D"/>
<stop offset="1"/>
</linearGradient>
<linearGradient id="paint19_linear_0_10293" x1="100.119" y1="9.85826" x2="100.119" y2="4.08779" gradientUnits="userSpaceOnUse">
<stop stop-color="#27E4DF"/>
<stop offset="1" stop-color="#27E1D7"/>
</linearGradient>
<linearGradient id="paint20_linear_0_10293" x1="102.431" y1="14.6445" x2="102.431" y2="11.0659" gradientUnits="userSpaceOnUse">
<stop stop-color="#27E3DD"/>
<stop offset="1" stop-color="#27E3DB"/>
</linearGradient>
<linearGradient id="paint21_linear_0_10293" x1="88.4014" y1="5.3103" x2="88.4014" y2="1.76154" gradientUnits="userSpaceOnUse">
<stop stop-color="#28E8ED"/>
<stop offset="1" stop-color="#26DDCC"/>
</linearGradient>
<linearGradient id="paint22_linear_0_10293" x1="88.4017" y1="3.84921" x2="88.4017" y2="1.76171" gradientUnits="userSpaceOnUse">
<stop stop-color="white"/>
<stop offset="1" stop-color="#E8D06F"/>
</linearGradient>
<linearGradient id="paint23_linear_0_10293" x1="100.119" y1="7.78566" x2="100.119" y2="4.08779" gradientUnits="userSpaceOnUse">
<stop stop-color="white"/>
<stop offset="1" stop-color="#E8D06F"/>
</linearGradient>
<linearGradient id="paint24_linear_0_10293" x1="102.431" y1="13.2429" x2="102.431" y2="11.0659" gradientUnits="userSpaceOnUse">
<stop stop-color="white"/>
<stop offset="1" stop-color="#E8D06F"/>
</linearGradient>
<linearGradient id="paint25_linear_0_10293" x1="89.6803" y1="5.206" x2="89.4476" y2="4.17346" gradientUnits="userSpaceOnUse">
<stop stop-color="#F8E07D"/>
<stop offset="1"/>
</linearGradient>
<linearGradient id="paint26_linear_0_10293" x1="101.013" y1="9.63446" x2="100.677" y2="8.14627" gradientUnits="userSpaceOnUse">
<stop stop-color="#F8E07D"/>
<stop offset="1"/>
</linearGradient>
<linearGradient id="paint27_linear_0_10293" x1="102.939" y1="14.4209" x2="102.693" y2="13.357" gradientUnits="userSpaceOnUse">
<stop stop-color="#F8E07D"/>
<stop offset="1"/>
</linearGradient>
<linearGradient id="paint28_linear_0_10293" x1="96.6163" y1="25.2312" x2="96.6163" y2="19.4607" gradientUnits="userSpaceOnUse">
<stop stop-color="#27E4E1"/>
<stop offset="1" stop-color="#27E3DD"/>
</linearGradient>
<linearGradient id="paint29_linear_0_10293" x1="96.6162" y1="23.2629" x2="96.6162" y2="19.4607" gradientUnits="userSpaceOnUse">
<stop stop-color="white"/>
<stop offset="1" stop-color="#E8D06F"/>
</linearGradient>
<linearGradient id="paint30_linear_0_10293" x1="97.4744" y1="24.9031" x2="97.1252" y2="23.3836" gradientUnits="userSpaceOnUse">
<stop stop-color="#F8E07D"/>
<stop offset="1"/>
</linearGradient>
<clipPath id="clip0_0_10293">
<rect width="17" height="14" fill="white" transform="translate(14 7.53833)"/>
</clipPath>
</defs>
</svg>
