<svg width="27" height="23" viewBox="0 0 27 23" fill="none" xmlns="http://www.w3.org/2000/svg">
<rect width="27" height="23" fill="#1E1E1E"/>
<g id="Desktop - 2" clip-path="url(#clip0_0_1)">
<rect width="1440" height="6391" transform="translate(-602 -5983)" fill="white"/>
<g id="Group 23">
<rect id="Rectangle 7" x="-602" y="-323" width="1440" height="734" fill="#78AF1A"/>
<g id="Group 13">
</g>
</g>
<g id="Frame 19">
<g id="Frame 17">
<path id="Vector" d="M1.65711 10.026C1.65711 10.026 13.5991 4.9716 17.7415 3.19422C19.332 2.48142 24.7144 0.204152 24.7144 0.204152C24.7144 0.204152 27.1944 -0.795623 26.9878 1.62976C26.9159 2.62953 26.3678 6.11023 25.8106 9.8779C24.984 15.21 24.0854 21.0421 24.0854 21.0421C24.0854 21.0421 23.9506 22.6806 22.7735 22.9583C21.5964 23.2453 19.6644 21.9678 19.323 21.6808C19.0444 21.4679 14.1472 18.2649 12.3501 16.7004C11.8648 16.2746 11.3167 15.4229 12.422 14.4232C14.902 12.0811 17.8763 9.1651 19.6644 7.31366C20.4911 6.462 21.3178 4.47171 17.8673 6.88783C12.9701 10.3685 8.13579 13.6456 8.13579 13.6456C8.13579 13.6456 7.03055 14.3584 4.96384 13.7196C2.89713 13.0809 0.47998 12.2292 0.47998 12.2292C0.47998 12.2292 -1.17339 11.1646 1.65711 10.026Z" fill="white"/>
</g>
</g>
</g>
<defs>
<clipPath id="clip0_0_1">
<rect width="1440" height="6391" fill="white" transform="translate(-602 -5983)"/>
</clipPath>
</defs>
</svg>
